<?xml version="1.0" standalone="no"?>
<!DOCTYPE svg PUBLIC "-//W3C//DTD SVG 20010904//EN"
 "http://www.w3.org/TR/2001/REC-SVG-20010904/DTD/svg10.dtd">
<svg version="1.0" xmlns="http://www.w3.org/2000/svg"
 width="1024.000000pt" height="1024.000000pt" viewBox="0 0 1024.000000 1024.000000"
 preserveAspectRatio="xMidYMid meet">
<metadata>
Created by potrace 1.16, written by Peter Selinger 2001-2019
</metadata>
<g transform="translate(0.000000,1024.000000) scale(0.100000,-0.100000)"
fill="#000000" stroke="none">
<path d="M7400 10220 c0 -4 19 -6 43 -4 l42 3 -42 -11 c-32 -8 -43 -16 -43
-30 0 -11 -5 -28 -10 -39 -7 -13 -7 -19 0 -19 5 0 10 -9 10 -20 0 -13 -7 -20
-20 -20 -13 0 -20 -7 -20 -20 0 -17 -7 -20 -40 -20 -33 0 -40 -3 -40 -20 0
-13 7 -20 20 -20 11 0 20 -4 20 -8 0 -14 48 -32 85 -32 28 0 35 -4 35 -20 0
-23 -34 -27 -75 -8 -21 9 -31 9 -46 0 -10 -7 -32 -12 -49 -12 -23 0 -30 -4
-30 -20 0 -13 -7 -20 -20 -20 -13 0 -20 -7 -20 -20 0 -13 -7 -20 -20 -20 -13
0 -20 -7 -20 -20 0 -13 7 -20 20 -20 13 0 20 7 20 20 0 18 7 20 80 20 l80 0 0
-39 c0 -30 4 -40 19 -44 11 -2 24 0 30 6 8 8 14 8 22 0 6 -6 18 -9 26 -6 26
10 63 -37 63 -79 0 -31 -3 -38 -20 -38 -13 0 -20 -7 -20 -20 0 -13 7 -20 20
-20 13 0 20 -7 20 -20 0 -17 -7 -20 -40 -20 -33 0 -40 3 -40 20 0 13 -7 20
-20 20 -17 0 -20 -7 -20 -40 0 -33 3 -40 20 -40 29 0 24 -24 -7 -37 -20 -7
-23 -12 -13 -15 84 -28 80 -27 80 -7 0 12 7 19 20 19 13 0 20 -7 20 -20 0 -18
7 -20 60 -20 53 0 60 -2 60 -20 0 -17 -7 -20 -40 -20 -33 0 -40 -3 -40 -20 0
-18 7 -20 60 -20 53 0 60 -2 60 -20 0 -13 -7 -20 -20 -20 -14 0 -20 -7 -20
-21 0 -20 -4 -21 -105 -17 -64 2 -106 -1 -109 -7 -2 -5 -7 -7 -11 -3 -5 5 2
16 13 27 24 20 31 41 7 21 -12 -10 -18 -10 -30 0 -9 8 -15 8 -15 2 0 -6 6 -13
13 -16 8 -4 9 -8 1 -11 -7 -4 -10 -23 -6 -50 l5 -45 -102 0 -101 0 0 -40 0
-40 40 0 40 0 0 -40 c0 -33 -3 -40 -20 -40 -13 0 -20 7 -20 20 0 13 -7 20 -20
20 -13 0 -20 -7 -20 -20 0 -13 -7 -20 -20 -20 -13 0 -20 -7 -20 -20 0 -13 7
-20 18 -20 11 0 27 -9 36 -19 18 -19 17 -20 -35 -23 l-54 -3 -3 -39 c-3 -38
-4 -38 -37 -33 -18 3 -36 3 -40 -1 -3 -3 -24 -5 -45 -3 l-40 3 0 -41 c0 -23
-4 -41 -10 -41 -5 0 -10 -10 -10 -22 0 -19 2 -20 10 -8 8 13 10 13 10 -2 0 -9
3 -23 6 -32 5 -13 -2 -16 -40 -16 l-46 0 0 -40 0 -40 80 0 c73 0 80 -2 80 -20
0 -17 7 -20 40 -20 l40 0 0 60 0 60 40 0 c33 0 40 3 40 20 0 18 7 20 80 20
l80 0 0 -100 0 -100 40 0 40 0 0 -40 c0 -40 0 -40 39 -40 l38 0 6 -47 c3 -27
1 -51 -5 -54 -16 -10 2 -59 23 -59 17 0 19 -8 19 -80 0 -72 2 -80 19 -80 11 0
21 6 24 13 2 6 8 0 12 -15 9 -35 1 -46 -30 -40 -23 4 -25 2 -23 -31 2 -19 6
-33 10 -31 3 2 8 -1 11 -8 2 -7 2 1 0 17 -2 25 -1 27 6 10 5 -11 10 -32 10
-47 1 -27 2 -28 61 -28 l60 0 0 -40 c0 -30 -4 -40 -16 -40 -11 0 -14 -5 -10
-16 3 -9 6 -18 6 -20 0 -2 23 -4 50 -4 43 0 50 -3 50 -20 0 -11 -7 -20 -15
-20 -8 0 -15 -8 -15 -18 0 -11 -8 -18 -22 -19 -13 -1 -24 -7 -26 -13 -2 -6
-21 -1 -47 15 -24 14 -50 25 -57 25 -7 0 1 -7 18 -16 49 -24 76 -58 85 -110
17 -93 -22 -164 -115 -208 -53 -25 -55 -25 -107 -10 -53 16 -53 16 -72 -7 -33
-42 -239 -259 -364 -383 -166 -166 -292 -276 -314 -276 -10 0 -33 13 -50 28
l-32 29 32 46 c18 26 36 47 42 47 5 0 103 95 217 211 114 115 258 256 320 312
l112 101 0 59 c0 82 25 125 95 161 l30 16 -27 -2 c-15 -1 -24 -6 -21 -12 3 -5
1 -6 -5 -2 -6 4 -9 13 -6 20 3 9 -3 17 -15 21 -16 5 -21 15 -21 40 0 18 -6 36
-12 38 -10 4 -10 6 0 6 31 2 0 61 -32 61 -9 0 -16 8 -16 20 0 20 -17 26 -62
22 -10 -1 -18 5 -18 13 0 18 -9 19 -60 3 -24 -8 -43 -21 -46 -33 -8 -23 -29
-45 -43 -45 -14 0 -14 -47 -1 -55 17 -11 11 -23 -19 -38 -31 -16 -69 -5 -43
12 10 6 5 11 -17 21 -17 7 -31 20 -31 29 0 23 -54 41 -124 41 -62 0 -96 -12
-96 -35 0 -8 -26 -42 -57 -77 -95 -105 -101 -117 -24 -43 l74 70 -74 -82 c-41
-46 -78 -83 -82 -83 -5 0 -5 6 -1 13 6 9 3 8 -8 -1 -9 -8 -14 -20 -12 -27 5
-13 -36 -47 -62 -51 -16 -3 -63 -55 -64 -71 0 -6 -9 -15 -21 -18 -12 -4 -18
-13 -15 -20 3 -8 -3 -19 -12 -27 -13 -11 -14 -11 -7 1 5 10 4 12 -3 7 -7 -4
-12 -12 -12 -19 0 -16 -51 -67 -67 -67 -7 0 -13 -4 -13 -10 0 -5 -27 -37 -61
-71 -34 -34 -53 -59 -43 -55 17 7 18 6 3 -9 -9 -9 -23 -17 -32 -19 -26 -4 -75
-56 -88 -93 -6 -18 -17 -33 -24 -33 -26 0 -125 43 -125 54 0 16 25 51 77 110
24 26 40 53 36 59 -3 5 -1 7 5 3 8 -5 201 180 232 222 8 12 -162 -151 -192
-182 -15 -17 -31 -27 -34 -23 -4 4 -2 7 5 7 7 0 10 4 7 9 -3 5 1 12 9 15 8 3
14 9 13 13 -2 5 7 19 20 33 15 17 20 30 15 44 -4 12 -8 32 -9 46 -4 54 -18 91
-38 105 -14 11 -16 15 -6 15 10 1 6 8 -12 23 -45 37 -178 189 -173 198 6 8
-17 34 -37 42 -10 4 -9 8 2 17 13 10 13 11 0 9 -33 -3 -51 1 -45 12 4 6 13 8
21 5 8 -3 14 -1 14 4 0 10 -29 15 -59 10 -7 -1 -23 7 -35 18 -22 21 -79 52
-93 52 -4 -1 6 -8 22 -17 74 -39 115 -104 115 -184 0 -90 -57 -167 -141 -189
-46 -13 -65 -6 -28 9 22 9 21 10 -14 10 -34 1 -37 -1 -27 -18 5 -11 11 -35 11
-53 l2 -33 7 35 c5 23 8 -9 9 -90 0 -78 -3 -120 -8 -111 -7 10 -9 6 -8 -15 0
-16 0 -49 -1 -72 l-2 -44 -62 7 c-35 4 -66 12 -70 19 -8 12 -3 234 8 329 4 31
11 57 16 57 5 0 -5 19 -23 43 -46 59 -48 61 -45 45 1 -8 13 -29 27 -45 25 -30
25 -31 14 -121 -7 -51 -14 -94 -17 -97 -3 -3 -13 6 -22 20 -9 14 -13 25 -9 25
5 0 3 4 -3 8 -6 4 -24 35 -39 70 -30 67 -37 140 -17 165 10 11 4 29 -24 86
-20 40 -44 75 -53 77 -9 3 -31 12 -49 20 -31 13 -32 15 -31 72 2 96 -38 132
-147 132 -77 0 -104 -66 -59 -149 23 -42 27 -57 21 -93 -4 -24 -7 -163 -6
-310 0 -147 -2 -279 -6 -293 -5 -22 -11 -25 -53 -25 -26 0 -52 5 -59 12 -7 7
-12 40 -12 80 0 37 -4 68 -9 68 -5 0 -13 25 -17 56 -5 42 -3 58 7 65 18 11 13
126 -6 155 -7 12 -37 48 -65 80 -29 33 -59 72 -67 87 -17 34 -28 31 -15 -4 5
-13 13 -46 16 -74 6 -41 3 -58 -16 -95 -14 -28 -29 -45 -40 -44 -12 1 -16 -6
-16 -27 1 -16 5 -29 9 -29 24 0 41 -81 46 -220 6 -131 5 -144 -9 -132 -10 8
-17 9 -20 3 -1 -6 -28 -11 -58 -13 l-55 -3 -6 90 c-4 66 -6 76 -8 38 -5 -110
-3 -202 5 -214 5 -9 2 -10 -9 -6 -10 3 -17 2 -17 -3 0 -6 -7 -10 -17 -10 -9 0
-14 -2 -12 -4 3 -3 72 9 154 26 143 29 162 31 395 32 270 1 320 -5 586 -69
185 -45 288 -77 384 -119 41 -19 116 -50 165 -71 130 -55 269 -124 350 -175
126 -78 401 -269 472 -327 29 -23 88 -66 130 -94 42 -28 110 -84 152 -123 42
-40 126 -114 186 -166 61 -51 167 -150 238 -219 l127 -126 -152 -155 c-84 -85
-139 -143 -123 -130 27 23 27 22 -4 -13 -34 -36 -56 -52 -31 -22 7 8 9 15 4
15 -5 0 -78 -66 -163 -145 -85 -80 -190 -173 -234 -208 -135 -105 -138 -113
-12 -35 l30 19 -25 -20 c-14 -11 -72 -54 -130 -96 -58 -41 -109 -78 -115 -83
-46 -36 -303 -202 -395 -254 -338 -191 -493 -260 -740 -329 -175 -48 -301 -72
-480 -89 l-95 -9 95 4 c52 3 124 7 160 9 l65 5 -75 -14 c-41 -7 -171 -15 -290
-18 -119 -2 -157 -2 -85 2 l130 6 -166 7 c-222 10 -289 20 -524 80 -214 54
-342 102 -580 218 -118 58 -363 201 -409 239 -7 6 -44 28 -82 49 -69 38 -367
255 -393 286 -15 18 -36 22 -25 4 4 -7 3 -8 -5 -4 -6 4 -9 11 -6 15 2 5 -32
42 -77 82 -147 132 -165 143 -53 33 107 -105 109 -110 15 -30 -70 61 -373 340
-487 450 -57 55 -103 97 -103 93 0 -4 24 -34 53 -66 28 -33 61 -72 72 -86 11
-15 37 -47 58 -72 21 -25 45 -57 54 -70 9 -13 35 -35 59 -49 27 -16 41 -31 37
-37 -3 -7 -3 -9 1 -5 10 8 47 -23 40 -34 -3 -4 3 -8 14 -8 15 0 64 -39 54 -44
-1 0 7 -24 19 -52 20 -47 27 -54 89 -83 37 -17 73 -38 80 -46 15 -18 34 -20
25 -3 -4 7 0 5 8 -4 8 -10 17 -15 20 -11 4 3 7 -1 7 -10 0 -8 11 -24 23 -34
46 -36 63 -97 30 -107 -10 -3 6 -4 35 -2 47 3 60 -1 120 -38 63 -39 98 -84 79
-102 -4 -4 -53 -9 -109 -11 -69 -2 -96 0 -83 6 14 7 -27 10 -125 10 l-146 1
-11 -29 c-9 -25 -8 -29 4 -24 13 5 13 2 4 -13 -20 -36 -46 -62 -78 -78 -33
-17 -68 -22 -60 -8 3 4 -23 7 -56 7 -110 0 -176 65 -178 177 -1 47 -2 49 -8
18 -9 -47 7 -124 31 -150 10 -11 17 -24 14 -29 -3 -4 6 -6 21 -3 20 4 24 2 18
-9 -5 -8 -5 -11 0 -7 10 9 32 -14 45 -46 8 -22 7 -26 -8 -27 -14 0 -14 -2 3
-9 15 -7 16 -9 4 -9 -9 -1 -19 -10 -22 -21 -4 -17 -1 -19 17 -14 19 4 25 -1
36 -26 8 -20 18 -29 27 -26 8 3 18 -4 25 -20 6 -13 17 -23 24 -20 7 3 18 -2
24 -10 7 -8 18 -14 25 -14 8 0 27 -12 44 -26 17 -14 31 -23 31 -20 0 3 21 -8
47 -24 26 -17 61 -30 77 -30 l31 0 -52 -50 c-28 -28 -48 -50 -44 -50 4 0 27
21 51 46 25 25 149 147 277 270 l232 223 50 -32 c27 -18 50 -37 50 -44 1 -6
-42 -48 -94 -94 -52 -45 -93 -84 -90 -87 3 -3 15 3 27 13 13 10 -2 -6 -32 -35
-30 -29 -129 -125 -220 -214 -90 -89 -131 -125 -91 -81 41 44 126 131 190 194
64 63 105 109 92 102 -28 -16 -431 -421 -431 -435 0 -5 12 1 28 14 15 12 -7
-11 -50 -52 -73 -72 -100 -89 -161 -102 -15 -4 -35 -14 -45 -24 -9 -9 -29 -25
-43 -34 -30 -19 -47 -67 -28 -78 6 -4 9 -14 6 -21 -2 -8 4 -29 15 -47 11 -18
18 -35 16 -37 -2 -2 -31 -7 -64 -11 -32 -4 -62 -12 -66 -17 -3 -6 -31 -12 -62
-13 -50 -3 -56 -1 -56 17 0 12 -7 19 -20 19 -13 0 -20 7 -20 20 0 11 -4 20
-10 20 -5 0 2 12 16 26 24 23 25 26 10 43 -9 10 -16 34 -16 54 0 30 4 37 20
37 17 0 20 7 20 40 0 33 -3 40 -20 40 -13 0 -20 -7 -20 -20 0 -18 -7 -20 -80
-20 -47 0 -80 -4 -80 -10 0 -5 -9 -10 -20 -10 -11 0 -20 5 -20 10 0 6 -9 10
-20 10 -13 0 -20 -7 -20 -20 0 -13 -7 -20 -20 -20 -17 0 -20 7 -20 40 0 33 -3
40 -20 40 -19 0 -20 7 -20 140 l0 140 -40 0 c-33 0 -40 3 -40 20 0 18 -7 20
-80 20 -73 0 -80 -2 -80 -20 0 -17 -7 -20 -40 -20 -33 0 -40 3 -40 20 0 18 -7
20 -60 20 -53 0 -60 -2 -60 -20 0 -18 7 -20 60 -20 53 0 60 -2 60 -20 0 -17
-7 -20 -40 -20 -22 0 -40 5 -40 10 0 6 -9 10 -20 10 -11 0 -20 5 -20 10 0 6
-18 10 -40 10 -22 0 -40 -4 -40 -10 0 -5 -9 -10 -20 -10 -11 0 -20 5 -20 10 0
6 9 10 20 10 13 0 20 7 20 20 0 13 7 20 20 20 17 0 20 7 20 40 l0 40 -40 0
-40 0 0 -40 0 -40 -40 0 -40 0 0 -40 0 -40 -40 0 c-33 0 -40 3 -40 20 0 18 -7
20 -80 20 -73 0 -80 -2 -80 -20 0 -13 -7 -20 -20 -20 -13 0 -20 7 -20 20 0 13
-7 20 -20 20 -13 0 -20 -7 -20 -20 0 -17 -7 -20 -40 -20 l-40 0 0 -40 c0 -33
-3 -40 -20 -40 -13 0 -20 7 -20 20 0 13 -7 20 -19 20 -10 0 -24 7 -31 15 -11
14 -17 12 -41 -17 -21 -25 -28 -44 -29 -75 l0 -43 40 0 40 0 0 -80 0 -80 -40
0 -40 0 0 40 0 40 -40 0 c-33 0 -40 3 -40 20 0 13 -7 20 -20 20 -13 0 -20 -7
-20 -20 0 -13 -7 -20 -20 -20 -17 0 -20 7 -20 40 l0 41 -77 -3 -78 -3 -3 -37
-3 -38 40 0 41 0 0 -40 c0 -33 -3 -40 -20 -40 -17 0 -20 -7 -20 -40 0 -33 -3
-40 -20 -40 -17 0 -20 7 -20 40 l0 40 -40 0 -40 0 0 60 0 60 -40 0 c-33 0 -40
-3 -40 -20 0 -13 -7 -20 -20 -20 -17 0 -20 7 -20 40 0 33 -3 40 -20 40 -13 0
-20 7 -20 20 0 13 -7 20 -20 20 -18 0 -20 7 -20 60 0 53 -2 60 -20 60 -19 0
-20 7 -20 200 0 193 -1 200 -20 200 -18 0 -20 7 -20 80 0 47 -4 80 -10 80 -5
0 -10 18 -10 40 0 22 -4 40 -10 40 -5 0 -10 -18 -10 -40 0 -36 -2 -40 -25 -40
-23 0 -25 3 -25 49 0 75 10 111 30 111 10 0 26 3 34 6 15 6 15 8 -1 21 -10 8
-12 12 -5 8 8 -4 12 2 12 19 0 22 -4 26 -30 26 -28 0 -30 3 -31 38 -1 20 -4
48 -8 62 l-7 25 -8 -30 c-4 -16 -10 -1161 -13 -2543 l-5 -2512 5121 0 5121 0
0 5115 0 5115 -1420 0 c-781 -1 -1420 -5 -1420 -10z m460 -184 c0 -11 -19 -15
-25 -6 -3 5 1 10 9 10 9 0 16 -2 16 -4z m25 -26 c3 -5 -1 -10 -10 -10 -9 0
-13 5 -10 10 3 6 8 10 10 10 2 0 7 -4 10 -10z m-368 -82 c-3 -7 -5 -2 -5 12 0
14 2 19 5 13 2 -7 2 -19 0 -25z m50 0 c-3 -7 -5 -2 -5 12 0 14 2 19 5 13 2 -7
2 -19 0 -25z m313 -48 c0 -33 -3 -40 -19 -40 -12 0 -21 8 -23 21 l-3 21 -19
-21 c-19 -21 -19 -21 2 -21 15 0 22 -6 22 -20 0 -13 7 -20 20 -20 13 0 20 -7
20 -20 0 -18 -7 -20 -60 -20 -53 0 -60 -2 -60 -20 0 -13 7 -20 20 -20 13 0 20
-7 20 -20 0 -13 -7 -20 -20 -20 -13 0 -20 -7 -20 -20 0 -17 -7 -20 -40 -20
-33 0 -40 3 -40 20 0 17 -7 20 -40 20 l-40 0 0 100 0 100 40 0 c33 0 40 3 40
20 0 19 7 20 100 20 l100 0 0 -40z m14 -172 c5 -10 7 -10 12 0 3 6 9 12 14 12
4 0 3 -11 -3 -25 -7 -14 -14 -25 -17 -25 -3 0 -10 11 -17 25 -6 14 -7 25 -3
25 5 0 11 -6 14 -12z m-51 -55 c-13 -2 -33 -2 -45 0 -13 2 -3 4 22 4 25 0 35
-2 23 -4z m-205 -71 c8 -6 2 -9 -18 -9 -20 0 -26 3 -18 9 7 4 15 8 18 8 3 0
11 -4 18 -8z m-241 -454 c-3 -7 -5 -2 -5 12 0 14 2 19 5 13 2 -7 2 -19 0 -25z
m-327 -268 c0 -5 -4 -10 -10 -10 -5 0 -10 5 -10 10 0 6 5 10 10 10 6 0 10 -4
10 -10z m50 -100 l0 -40 -40 0 c-36 0 -40 3 -40 25 0 21 -5 25 -30 25 -16 0
-30 4 -30 9 0 10 36 17 103 19 37 2 37 2 37 -38z m-110 -26 c0 -8 -4 -14 -10
-14 -5 0 -10 9 -10 21 0 11 5 17 10 14 6 -3 10 -13 10 -21z m790 -714 c0 -5
-9 -10 -20 -10 -11 0 -20 5 -20 10 0 6 9 10 20 10 11 0 20 -4 20 -10z m130
-51 c0 -5 -4 -9 -10 -9 -5 0 -10 7 -10 16 0 8 5 12 10 9 6 -3 10 -10 10 -16z
m-2698 -64 c4 -5 8 -20 8 -31 0 -12 11 -46 24 -75 13 -30 26 -72 30 -94 11
-77 16 -334 6 -340 -5 -3 -37 -3 -70 1 l-60 7 0 251 c0 211 3 255 15 274 16
22 34 25 47 7z m2004 -20 c4 -9 1 -29 -6 -46 -7 -17 -192 -210 -412 -430
l-399 -399 -49 25 c-28 14 -50 31 -50 38 0 13 483 495 658 657 54 50 88 88 83
93 -13 13 -2 37 17 37 13 0 12 -3 -4 -14 -15 -12 -16 -14 -3 -12 9 1 31 16 48
34 26 25 41 32 72 32 26 0 42 -5 45 -15z m674 -5 c0 -5 -4 -10 -10 -10 -5 0
-10 5 -10 10 0 6 5 10 10 10 6 0 10 -4 10 -10z m34 -32 c-4 -12 2 -18 23 -21
28 -4 28 -4 -2 -3 -26 1 -30 5 -31 35 -1 22 1 29 7 20 5 -8 6 -22 3 -31z m53
-54 c-3 -3 -12 -4 -19 -1 -8 3 -5 6 6 6 11 1 17 -2 13 -5z m-331 -884 c42 -26
75 -94 81 -168 4 -46 0 -65 -19 -102 -58 -111 -229 -120 -315 -16 l-30 38
-144 -5 c-79 -3 -160 -8 -180 -12 -43 -8 -105 19 -138 61 -41 52 -37 54 157
55 97 1 203 4 235 8 57 6 59 7 72 44 28 80 84 116 184 117 47 0 72 -5 97 -20z
m49 0 c3 -5 2 -10 -4 -10 -5 0 -13 5 -16 10 -3 6 -2 10 4 10 5 0 13 -4 16 -10z
m53 -42 c6 -18 13 -41 17 -50 5 -13 2 -18 -10 -18 -9 0 -19 9 -22 20 -3 11 -9
20 -13 20 -4 0 -12 12 -19 28 l-11 27 19 -23 c20 -23 36 -16 25 12 -3 9 -4 16
-1 16 4 0 10 -15 15 -32z m228 -239 c9 -15 -23 -10 -35 5 -10 12 -8 13 9 9 11
-3 23 -9 26 -14z m-246 -575 c0 -2 -7 -4 -15 -4 -8 0 -15 4 -15 10 0 5 7 7 15
4 8 -4 15 -8 15 -10z m135 -104 c0 -18 -34 -24 -55 -10 -13 9 -13 11 0 20 21
14 55 8 55 -10z m-20 -60 c3 -5 1 -10 -4 -10 -6 0 -11 5 -11 10 0 6 2 10 4 10
3 0 8 -4 11 -10z m-185 -325 c-24 -25 -49 -45 -55 -45 -9 0 84 89 95 90 2 0
-16 -20 -40 -45z m-280 -259 c0 -2 -8 -10 -17 -17 -16 -13 -17 -12 -4 4 13 16
21 21 21 13z m-150 -140 c0 -2 -8 -10 -17 -17 -16 -13 -17 -12 -4 4 13 16 21
21 21 13z m378 -171 c20 -9 48 -26 61 -38 55 -51 77 -159 47 -231 -30 -72
-123 -110 -221 -92 -45 9 -106 63 -130 116 -11 24 -27 42 -39 45 -37 8 -406
10 -406 3 0 -9 30 -16 85 -21 38 -3 38 -4 -8 -5 -91 -3 -117 39 -49 79 20 12
45 29 54 37 14 12 51 14 189 13 l172 -2 41 40 c73 71 129 87 204 56z m-667
-417 c154 -142 371 -355 486 -479 56 -60 67 -67 119 -78 72 -14 92 -31 86 -72
-5 -31 -5 -31 -46 -24 -22 4 -68 8 -102 9 -77 1 -89 10 -309 231 -93 93 -228
224 -300 290 -181 166 -227 225 -177 225 9 0 31 9 47 19 17 11 33 20 36 20 3
1 75 -63 160 -141z m-3112 -114 c1 -11 -201 -215 -251 -254 -16 -12 -28 -28
-28 -36 0 -8 -4 -12 -10 -9 -6 3 -7 -1 -4 -9 3 -9 1 -17 -5 -17 -6 -1 -15 -2
-20 -3 -6 0 -16 -7 -23 -15 -11 -12 -11 -13 1 -6 32 18 -3 -17 -39 -40 -46
-29 -91 -75 -84 -87 3 -4 -1 -5 -9 -3 -7 3 -22 -3 -32 -15 -17 -19 -10 -28 11
-12 6 4 -17 -19 -50 -51 -33 -31 -69 -60 -80 -63 -10 -4 -34 -21 -53 -40 -38
-38 -77 -61 -118 -68 -16 -3 -41 -21 -56 -39 -32 -38 -70 -53 -98 -38 -24 14
-17 61 10 61 11 0 26 15 38 38 19 37 58 78 116 121 51 39 312 283 594 557
l104 101 43 -31 c23 -17 43 -36 43 -42z m2901 -210 c188 -180 465 -465 479
-491 14 -28 5 -52 -25 -59 -46 -12 -123 37 -234 147 -102 102 -418 403 -510
487 -25 22 -60 60 -77 84 l-31 44 48 27 c27 15 52 32 55 37 3 5 40 -26 83 -68
42 -43 138 -137 212 -208z m-2521 45 c1 -5 -116 -128 -260 -273 -145 -145
-292 -293 -327 -330 -66 -70 -125 -105 -178 -106 -17 0 -37 7 -44 15 -25 31
-1 70 108 175 393 377 552 535 562 560 l12 28 61 -29 c34 -16 64 -34 66 -40z
m1894 39 c34 -52 187 -212 327 -343 142 -133 340 -346 340 -365 0 -5 -9 -12
-20 -15 -11 -3 -20 -10 -20 -15 0 -14 -43 1 -80 28 -78 58 -680 640 -680 658
0 9 98 74 111 74 4 0 14 -10 22 -22z m-263 -12 c0 -11 -301 -81 -321 -74 -5 2
62 20 148 40 173 40 173 40 173 34z m-1233 -62 c-3 -3 -12 -4 -19 -1 -8 3 -5
6 6 6 11 1 17 -2 13 -5z m60 -10 c-3 -3 -12 -4 -19 -1 -8 3 -5 6 6 6 11 1 17
-2 13 -5z m50 -10 c-3 -3 -12 -4 -19 -1 -8 3 -5 6 6 6 11 1 17 -2 13 -5z
m-2977 -164 l0 -80 34 0 c39 0 46 -11 46 -76 l0 -44 -40 0 c-33 0 -40 3 -40
20 0 18 -7 20 -60 20 l-60 0 0 60 0 60 40 0 40 0 0 60 c0 53 2 60 20 60 18 0
20 -7 20 -80z m110 -60 c0 -22 -4 -40 -10 -40 -5 0 -10 18 -10 40 0 22 5 40
10 40 6 0 10 -18 10 -40z m-1230 -180 l0 -80 -31 0 c-26 0 -30 3 -23 18 4 9
10 45 12 80 3 53 6 62 23 62 17 0 19 -8 19 -80z m-290 -20 c0 -5 -4 -10 -10
-10 -5 0 -10 5 -10 10 0 6 5 10 10 10 6 0 10 -4 10 -10z m1128 3 c-10 -2 -28
-2 -40 0 -13 2 -5 4 17 4 22 1 32 -1 23 -4z m3201 -223 c172 -329 440 -872
567 -1153 34 -76 79 -167 98 -203 39 -70 48 -106 21 -84 -8 7 -48 14 -88 17
-39 2 -93 5 -119 7 -40 2 -47 0 -52 -18 -5 -18 -7 -19 -20 -6 -17 18 -146 303
-146 324 0 23 -96 27 -384 19 -215 -7 -260 -11 -266 -23 -30 -60 -80 -189 -80
-205 1 -12 9 -2 20 25 30 72 23 30 -11 -64 -18 -47 -36 -86 -40 -86 -5 0 -8 6
-6 13 3 17 -239 23 -259 6 -28 -23 -24 17 10 101 58 143 112 270 161 380 26
58 72 164 102 235 30 72 57 136 60 144 5 10 2 12 -8 7 -8 -4 -6 -1 5 8 10 8
15 20 10 27 -4 7 -3 10 3 6 13 -8 36 41 27 55 -4 6 -2 8 4 4 6 -3 15 9 23 31
6 21 22 59 35 85 13 26 21 55 18 65 -4 12 -3 14 3 6 12 -17 74 121 67 145 -5
13 -4 14 4 4 6 -10 15 3 32 48 12 33 27 63 31 66 12 7 1 24 -14 24 -8 0 -8 -3
1 -9 10 -6 7 -12 -13 -25 -17 -11 -24 -23 -21 -33 4 -9 1 -13 -6 -10 -8 2 -12
16 -10 32 4 29 48 104 69 118 7 4 13 19 13 32 0 18 5 25 19 25 11 0 23 5 26
11 15 24 37 -4 114 -151z m-3279 100 c0 -5 -9 -10 -20 -10 -11 0 -20 5 -20 10
0 6 9 10 20 10 11 0 20 -4 20 -10z m4455 -157 c11 -227 16 -1343 6 -1378 -7
-28 -8 -29 -15 -8 -6 20 -14 22 -112 25 -58 2 -108 0 -111 -4 -2 -5 -11 -8
-19 -8 -12 0 -14 106 -14 765 l0 765 128 0 129 0 8 -157z m-5095 83 c0 -2 -8
-10 -17 -17 -16 -13 -17 -12 -4 4 13 16 21 21 21 13z m4807 -493 c-2 -16 -4
-5 -4 22 0 28 2 40 4 28 2 -13 2 -35 0 -50z m-1343 -110 c4 -9 2 -20 -5 -23
-6 -4 -10 -10 -9 -14 1 -4 -3 -21 -9 -38 -9 -25 -14 -29 -24 -19 -9 10 -8 15
5 25 10 7 15 16 11 19 -3 4 -2 7 4 7 5 0 8 14 5 30 -5 32 11 41 22 13z m703
-539 c-3 -3 -12 -4 -19 -1 -8 3 -5 6 6 6 11 1 17 -2 13 -5z"/>
<path d="M7696 9794 c-3 -9 -2 -22 2 -31 6 -10 9 -5 9 16 0 35 -2 38 -11 15z"/>
<path d="M7511 6803 c-44 -55 -32 -108 31 -134 40 -17 76 2 101 53 16 34 17
39 3 66 -17 34 -34 42 -81 42 -24 0 -39 -7 -54 -27z"/>
<path d="M7668 6608 c-20 -10 -56 -23 -80 -27 -40 -8 -41 -9 -10 -10 36 -1
132 36 132 50 0 5 -1 8 -2 8 -2 -1 -19 -10 -40 -21z"/>
<path d="M7511 4874 c-43 -36 -43 -82 1 -119 39 -33 81 -29 116 12 30 33 24
78 -14 111 -33 29 -65 28 -103 -4z"/>
<path d="M4572 3113 c-10 -21 -29 -65 -42 -98 -13 -33 -31 -68 -40 -77 -9 -10
-27 -44 -40 -75 -13 -32 -31 -70 -42 -85 -10 -14 -18 -29 -18 -32 0 -3 92 -6
205 -6 113 0 205 3 205 6 0 17 -79 182 -126 261 -48 83 -74 111 -74 84 0 -5
-7 -11 -15 -15 -13 -5 -13 -1 0 31 21 49 11 54 -13 6z m-52 -183 c0 -5 -2 -10
-4 -10 -3 0 -8 5 -11 10 -3 6 -1 10 4 10 6 0 11 -4 11 -10z"/>
<path d="M7298 10213 c12 -2 32 -2 45 0 12 2 2 4 -23 4 -25 0 -35 -2 -22 -4z"/>
<path d="M7233 10083 c9 -2 25 -2 35 0 9 3 1 5 -18 5 -19 0 -27 -2 -17 -5z"/>
<path d="M7010 9990 c0 -5 5 -10 10 -10 6 0 10 5 10 10 0 6 -4 10 -10 10 -5 0
-10 -4 -10 -10z"/>
<path d="M7240 9780 c0 -13 7 -20 20 -20 13 0 20 7 20 20 0 13 -7 20 -20 20
-13 0 -20 -7 -20 -20z"/>
<path d="M7390 9720 c0 -5 5 -10 11 -10 5 0 7 5 4 10 -3 6 -8 10 -11 10 -2 0
-4 -4 -4 -10z"/>
<path d="M7435 9720 c-3 -5 -1 -10 4 -10 6 0 11 5 11 10 0 6 -2 10 -4 10 -3 0
-8 -4 -11 -10z"/>
<path d="M7385 9430 c-3 -5 -1 -10 4 -10 6 0 11 5 11 10 0 6 -2 10 -4 10 -3 0
-8 -4 -11 -10z"/>
<path d="M6890 9420 c0 -5 5 -10 10 -10 6 0 10 5 10 10 0 6 -4 10 -10 10 -5 0
-10 -4 -10 -10z"/>
<path d="M7360 9399 c0 -5 5 -7 10 -4 6 3 10 8 10 11 0 2 -4 4 -10 4 -5 0 -10
-5 -10 -11z"/>
<path d="M7236 9251 c-8 -12 13 -18 42 -13 18 4 20 7 10 13 -17 11 -45 11 -52
0z"/>
<path d="M7040 9080 l0 -40 -40 0 c-25 0 -40 -5 -41 -12 -7 -69 -8 -68 38 -68
l43 0 0 40 0 40 40 0 c33 0 40 3 40 20 0 13 -7 20 -20 20 -13 0 -20 7 -20 20
0 13 -7 20 -20 20 -17 0 -20 -7 -20 -40z"/>
<path d="M6830 9080 c0 -5 5 -10 10 -10 6 0 10 5 10 10 0 6 -4 10 -10 10 -5 0
-10 -4 -10 -10z"/>
<path d="M6915 9000 c-3 -5 -1 -10 4 -10 6 0 11 5 11 10 0 6 -2 10 -4 10 -3 0
-8 -4 -11 -10z"/>
<path d="M7195 8600 c6 -36 5 -40 -14 -40 -14 0 -21 -6 -21 -20 0 -13 7 -20
20 -20 13 0 20 -7 20 -20 0 -17 7 -20 40 -20 l40 0 0 80 c0 79 0 80 -25 80
-20 0 -25 -5 -25 -25 0 -14 -4 -25 -10 -25 -5 0 -10 11 -10 25 0 14 -5 25 -11
25 -7 0 -8 -14 -4 -40z"/>
<path d="M7490 8396 c0 -8 -6 -16 -12 -19 -7 -2 -10 -8 -6 -12 8 -9 38 18 38
34 0 6 -4 11 -10 11 -5 0 -10 -6 -10 -14z"/>
<path d="M7288 8093 c6 -2 18 -2 25 0 6 3 1 5 -13 5 -14 0 -19 -2 -12 -5z"/>
<path d="M5535 8069 c-11 -6 -29 -22 -39 -37 l-19 -27 29 26 c16 15 38 31 49
37 25 14 7 14 -20 1z"/>
<path d="M7506 8055 c-3 -8 -1 -15 4 -15 6 0 10 7 10 15 0 8 -2 15 -4 15 -2 0
-6 -7 -10 -15z"/>
<path d="M7440 8041 c0 -6 9 -9 20 -8 11 1 20 5 20 9 0 4 -9 8 -20 8 -11 0
-20 -4 -20 -9z"/>
<path d="M4700 8031 c0 -5 7 -15 17 -22 15 -13 15 -12 4 9 -12 23 -21 28 -21
13z"/>
<path d="M7453 8013 c9 -2 25 -2 35 0 9 3 1 5 -18 5 -19 0 -27 -2 -17 -5z"/>
<path d="M3564 7949 c28 -30 163 -171 301 -314 250 -258 375 -393 375 -406 0
-3 -19 -11 -42 -18 -24 -7 -50 -19 -59 -27 -14 -13 -21 -8 -64 50 -47 65 -72
85 -72 61 0 -8 3 -13 6 -12 9 3 50 -36 46 -43 -2 -3 7 -19 21 -35 13 -15 23
-35 23 -44 -2 -29 -17 -76 -18 -58 -1 20 -21 24 -21 4 0 -7 6 -19 13 -26 10
-11 9 -13 -5 -8 -9 3 -19 1 -21 -6 -3 -9 -13 -7 -38 6 -19 10 -52 28 -73 39
-39 21 -126 99 -263 236 -40 39 -78 72 -83 72 -6 0 -9 5 -8 11 2 6 -21 28 -49
48 -69 49 -104 82 -97 93 3 5 2 7 -3 6 -5 -2 -31 18 -58 43 -28 26 -70 64 -94
85 -25 22 -57 50 -72 64 -123 115 -18 7 273 -281 310 -308 398 -401 398 -422
0 -4 -7 -7 -15 -7 -9 0 -27 -11 -41 -25 -14 -14 -29 -25 -34 -25 -5 0 -178
169 -385 375 -206 206 -380 375 -385 375 -5 0 -30 21 -56 48 -26 26 -42 40
-36 31 7 -9 8 -20 4 -24 -4 -5 -1 -5 6 -1 6 4 12 2 12 -4 0 -15 52 -59 70 -60
13 0 13 -1 0 -10 -8 -5 -10 -10 -4 -10 7 0 15 -11 18 -25 4 -15 16 -27 31 -31
14 -3 25 -11 25 -18 0 -6 13 -20 30 -29 32 -19 456 -440 553 -547 60 -69 71
-104 41 -134 -8 -9 -13 -20 -9 -25 3 -6 -11 -15 -32 -21 -21 -5 -44 -14 -50
-18 -14 -9 -66 36 -261 228 -134 132 -261 250 -268 250 -9 0 -53 55 -54 65 0
6 -9 18 -19 27 -16 13 -35 60 -46 108 -23 107 -72 184 -112 174 -15 -4 -23 -2
-23 7 0 7 -3 9 -7 6 -3 -4 -15 1 -26 10 -18 16 -17 14 2 -13 15 -21 24 -51 28
-94 l6 -62 322 -322 c177 -176 330 -334 340 -349 18 -28 18 -28 -15 -62 -19
-19 -40 -35 -46 -35 -13 0 -561 541 -646 638 -49 55 -61 63 -56 35 2 -13 -7
-20 -33 -27 -93 -23 -176 34 -210 144 -4 14 -8 18 -8 9 -2 -34 32 -93 80 -139
27 -26 49 -54 49 -64 0 -9 8 -24 18 -34 10 -10 21 -26 25 -35 4 -10 17 -21 29
-26 13 -5 66 -29 119 -55 53 -25 108 -46 123 -46 14 0 26 -5 26 -11 0 -6 8 -8
19 -4 20 6 65 -27 54 -39 -4 -3 -1 -6 6 -6 7 0 30 -19 52 -42 21 -23 39 -39
39 -36 0 4 47 -41 105 -99 57 -59 102 -110 99 -114 -2 -4 0 -10 6 -14 5 -3 10
-17 10 -31 0 -19 -8 -28 -32 -37 -18 -6 -37 -10 -42 -9 -5 2 -4 -4 3 -12 17
-20 -2 -52 -54 -92 -19 -14 -35 -33 -35 -40 0 -8 -4 -14 -10 -14 -5 0 -10 6
-10 14 0 8 -10 16 -22 19 -33 9 -335 10 -348 2 -6 -4 -8 -15 -5 -25 8 -26 -46
-67 -99 -75 -43 -7 -113 15 -173 53 -34 22 -64 77 -73 135 l-8 52 -1 -46 c-1
-44 40 -149 58 -149 7 0 44 -28 64 -47 4 -5 20 -25 37 -46 16 -21 31 -37 33
-35 3 2 13 -4 23 -13 11 -9 28 -19 39 -23 11 -3 25 -16 30 -28 6 -13 38 -39
72 -59 l62 -36 -15 -28 c-12 -24 -6 -21 43 21 32 27 63 52 68 56 6 4 30 24 55
46 83 71 210 163 253 182 23 10 58 35 77 56 36 37 167 129 185 129 6 0 31 16
55 36 25 20 95 60 155 88 61 29 121 59 135 66 57 30 88 44 140 65 200 80 294
115 360 132 41 11 77 22 80 25 3 3 -5 4 -17 1 -12 -3 -24 -1 -27 6 -3 7 -5 7
-5 -1 -2 -22 -29 -14 -37 10 -12 38 -127 164 -170 186 -23 12 -47 28 -54 36
-7 8 -19 15 -26 15 -8 0 -14 5 -14 10 0 16 -126 141 -145 144 -10 1 -23 13
-31 27 -7 13 -13 20 -14 16 0 -13 -60 59 -60 73 0 7 -7 10 -16 6 -8 -3 -12 -2
-9 4 3 6 -10 30 -29 54 -20 23 -36 46 -36 49 0 4 -19 32 -42 62 -40 51 -46 55
-85 55 -23 0 -43 4 -45 8 -1 4 -19 19 -38 32 -32 22 -31 19 14 -31z m181 -109
c3 -5 1 -10 -4 -10 -6 0 -11 5 -11 10 0 6 2 10 4 10 3 0 8 -4 11 -10z"/>
<path d="M4506 7969 c-64 -50 0 -159 76 -130 36 13 52 39 51 79 -2 66 -72 94
-127 51z"/>
<path d="M5591 7963 c-11 -10 -24 -32 -27 -50 -5 -27 -1 -37 24 -63 40 -39 73
-39 106 1 31 37 33 67 5 103 -25 31 -76 35 -108 9z"/>
<path d="M4357 7921 c-8 -36 1 -108 14 -117 4 -2 6 -11 3 -18 -6 -15 22 -29
38 -19 6 3 8 1 5 -5 -9 -13 95 -122 117 -122 10 0 26 -5 37 -10 18 -10 19 -7
19 39 0 41 -3 49 -15 45 -28 -11 -85 7 -120 38 -56 49 -77 86 -84 147 -6 53
-7 54 -14 22z"/>
<path d="M3040 7906 c0 -2 8 -10 18 -17 15 -13 16 -12 3 4 -13 16 -21 21 -21
13z"/>
<path d="M3428 7885 c14 -26 122 -132 122 -119 0 5 -30 39 -66 74 -37 36 -62
56 -56 45z"/>
<path d="M6501 7808 c-41 -43 -70 -77 -65 -77 11 2 149 148 143 152 -2 1 -37
-33 -78 -75z"/>
<path d="M3090 7866 c0 -2 8 -10 18 -17 15 -13 16 -12 3 4 -13 16 -21 21 -21
13z"/>
<path d="M7553 7833 c9 -2 25 -2 35 0 9 3 1 5 -18 5 -19 0 -27 -2 -17 -5z"/>
<path d="M7502 7714 c-40 -27 -25 -92 27 -119 27 -13 31 -13 62 8 41 27 51 77
23 108 -21 23 -81 25 -112 3z"/>
<path d="M2610 7701 c-5 -11 -10 -34 -10 -51 0 -25 6 -33 36 -47 31 -16 38
-16 61 -3 15 8 31 28 36 43 8 24 5 33 -14 53 -29 31 -93 34 -109 5z"/>
<path d="M6379 7683 l-34 -38 38 34 c34 33 42 41 34 41 -2 0 -19 -17 -38 -37z"/>
<path d="M6574 7698 l-19 -23 23 19 c21 18 27 26 19 26 -2 0 -12 -10 -23 -22z"/>
<path d="M3600 7700 c0 -5 11 -17 25 -28 13 -11 22 -22 20 -26 -3 -3 -3 -5 0
-3 7 5 240 -226 237 -235 -1 -5 3 -8 8 -8 6 0 32 -19 58 -42 26 -23 -36 44
-138 148 -180 185 -210 213 -210 194z"/>
<path d="M4581 7534 c0 -11 3 -14 6 -6 3 7 2 16 -1 19 -3 4 -6 -2 -5 -13z"/>
<path d="M6379 7493 c-13 -16 -12 -17 4 -4 9 7 17 15 17 17 0 8 -8 3 -21 -13z"/>
<path d="M4468 7193 c7 -3 16 -2 19 1 4 3 -2 6 -13 5 -11 0 -14 -3 -6 -6z"/>
<path d="M4938 7015 c-2 -3 -55 -12 -116 -20 -371 -49 -858 -240 -1207 -473
-292 -195 -451 -318 -590 -453 -60 -60 -130 -125 -155 -145 -25 -20 -71 -61
-104 -92 l-58 -56 53 -50 c30 -27 108 -100 174 -162 345 -323 754 -609 1130
-790 151 -73 305 -137 312 -130 3 2 -17 12 -44 21 -106 39 -334 156 -327 168
4 7 4 9 0 5 -12 -10 -67 13 -59 25 4 6 0 8 -10 4 -10 -3 -17 -3 -17 2 0 17 14
20 34 6 23 -16 40 -20 32 -6 -3 4 7 14 22 20 18 9 28 9 30 2 5 -15 32 -14 33
2 0 6 5 2 11 -10 11 -23 38 -32 38 -13 0 13 37 13 42 1 2 -6 22 -11 46 -12 23
-2 42 -6 42 -10 0 -5 55 -21 63 -17 1 0 21 -9 45 -21 23 -12 42 -19 42 -16 0
3 15 -2 33 -11 17 -10 61 -20 97 -23 62 -6 65 -7 71 -36 4 -19 7 -3 8 47 0 42
5 79 10 83 5 3 35 -2 65 -12 68 -21 70 -28 64 -198 -4 -132 -13 -119 99 -133
l62 -9 -6 130 -6 129 49 -7 c101 -13 94 -5 94 -98 0 -45 -3 -99 -7 -120 l-6
-38 -51 5 c-37 3 -43 3 -21 -3 17 -5 74 -9 128 -10 l97 -1 0 134 0 134 65 4
65 3 0 -133 c0 -122 1 -133 18 -128 9 2 46 8 82 11 l65 7 -4 157 -3 158 48 7
c108 16 99 24 102 -87 2 -74 0 -97 -9 -91 -9 5 -11 -5 -7 -41 4 -29 2 -42 -3
-34 -7 11 -9 10 -9 -3 0 -24 31 -23 128 2 189 48 557 229 812 399 261 174 329
223 420 300 52 45 129 109 170 142 41 33 141 126 222 205 l147 145 -32 29
c-18 16 -37 30 -43 30 -6 0 -18 8 -25 18 -13 16 -12 16 6 2 11 -8 7 0 -9 18
-17 18 -32 32 -34 32 -3 0 3 -9 13 -20 40 -45 -4 -15 -70 46 -60 56 -54 64 10
15 64 -49 -86 94 -165 158 -52 41 -138 112 -191 156 -102 85 -334 250 -459
327 -116 71 -349 184 -509 247 -294 116 -611 181 -882 181 -86 0 -158 -2 -161
-5z m100 -185 l-3 -120 73 0 72 0 0 121 c0 121 0 121 23 115 12 -3 44 -6 70
-6 l48 0 -3 -124 -3 -124 65 -22 c36 -12 71 -24 78 -27 9 -3 12 27 12 132 0
127 1 137 18 130 9 -4 42 -13 72 -19 l55 -11 3 -45 c2 -25 3 -96 3 -157 l0
-112 57 -45 c185 -142 281 -310 333 -577 35 -182 18 -378 -46 -530 -14 -33
-23 -64 -19 -70 9 -14 -32 -104 -78 -171 -21 -32 -41 -58 -44 -58 -6 0 3 16
32 55 28 38 84 150 84 167 -1 7 -21 -27 -47 -75 -25 -49 -68 -113 -95 -143
-27 -29 -47 -58 -44 -63 4 -5 1 -13 -5 -17 -8 -5 -9 -3 -4 6 5 8 -8 1 -28 -15
-20 -16 -34 -31 -32 -34 3 -2 13 3 23 12 10 10 23 17 28 17 10 -1 -20 -25 -50
-42 -14 -8 -17 -7 -11 2 4 7 4 11 -1 8 -128 -62 -184 -85 -282 -118 -174 -58
-229 -66 -362 -51 -144 15 -232 44 -416 135 -138 68 -157 81 -215 144 -83 90
-122 157 -176 300 -72 189 -76 215 -77 417 -1 178 -1 180 26 229 15 26 33 66
38 88 6 21 14 47 17 55 5 12 2 15 -9 10 -12 -4 -15 0 -14 16 4 32 25 69 37 62
5 -4 13 4 18 17 9 23 41 57 41 44 0 -4 43 36 96 88 90 89 158 136 197 136 15
0 17 17 17 164 l0 164 58 7 c31 4 63 12 70 17 9 8 12 -2 12 -43 2 -126 5 -209
10 -208 3 0 36 8 75 18 60 16 69 21 70 42 1 13 2 70 3 127 l2 102 66 0 66 0
-4 -120z m-493 70 c-3 -5 -14 -10 -24 -10 -9 0 -64 -15 -122 -34 -127 -41
-159 -49 -159 -39 0 10 93 47 180 72 73 21 135 26 125 11z m1178 3 c-7 -2 -19
-2 -25 0 -7 3 -2 5 12 5 14 0 19 -2 13 -5z m44 -9 c-3 -3 -12 -4 -19 -1 -8 3
-5 6 6 6 11 1 17 -2 13 -5z m163 -56 c10 -6 7 -7 -10 -2 -14 3 -32 11 -40 16
-10 6 -7 7 10 2 14 -3 32 -11 40 -16z m216 -82 c84 -39 99 -56 23 -26 -60 24
-109 49 -109 55 0 9 11 5 86 -29z m-1986 20 c0 -2 -9 -6 -20 -9 -11 -3 -18 -1
-14 4 5 9 34 13 34 5z m-80 -26 c-20 -13 -33 -13 -25 0 3 6 14 10 23 10 15 0
15 -2 2 -10z m2220 -75 c0 -10 -16 -4 -40 16 l-25 20 33 -16 c17 -8 32 -18 32
-20z m164 -90 c27 -19 46 -35 41 -35 -9 0 -105 60 -105 66 0 10 19 1 64 -31z
m143 -88 c15 -13 56 -42 90 -65 34 -23 65 -47 69 -53 3 -6 -41 21 -100 60 -58
39 -106 74 -106 76 0 11 20 3 47 -18z m240 -179 c3 -7 -8 -2 -25 10 -17 13
-35 28 -39 34 -3 7 8 2 25 -10 17 -13 35 -28 39 -34z m-398 22 c12 0 46 -14
76 -31 34 -19 71 -31 100 -33 26 -1 50 -8 54 -14 3 -6 42 -27 86 -47 44 -20
88 -41 98 -46 10 -5 47 -13 83 -18 72 -8 109 -36 151 -110 l22 -39 -510 2
-510 1 -10 40 c-5 22 -14 50 -19 63 -6 13 -10 27 -10 32 0 6 58 11 138 12
l137 2 -105 5 c-58 4 -104 8 -103 11 1 5 8 35 18 84 3 13 19 39 36 57 30 33
34 34 116 36 47 1 87 4 90 7 3 3 14 1 24 -4 10 -6 27 -10 38 -10z m-3149 -84
c0 -2 -7 -7 -16 -10 -8 -3 -12 -2 -9 4 6 10 25 14 25 6z m-90 -63 c-64 -59
-82 -70 -74 -48 7 17 103 95 118 95 4 0 -15 -21 -44 -47z m913 -28 c18 -13 18
-14 -1 -33 -27 -27 -49 -131 -30 -143 16 -11 -492 -10 -577 1 -45 5 -13 8 130
11 152 2 116 4 -177 9 -201 3 -369 8 -373 11 -9 10 75 117 99 126 11 4 205 7
430 5 280 -1 413 2 422 9 7 6 18 8 23 5 5 -4 12 -2 16 4 8 13 16 12 38 -5z
m2780 -182 c-13 -2 -33 -2 -45 0 -13 2 -3 4 22 4 25 0 35 -2 23 -4z m-4043
-97 c0 -3 -15 -14 -32 -26 l-33 -22 30 26 c31 27 35 29 35 22z m1203 -121 c-3
-38 -7 -71 -8 -73 -5 -6 -1010 -2 -1097 5 l-88 6 0 63 0 63 33 4 c17 2 287 4
599 3 l568 -1 -7 -70z m3263 63 c5 -6 -12 -118 -20 -125 -8 -9 -1147 -21
-1158 -13 -3 3 -9 35 -13 72 l-7 67 33 3 c44 4 1160 0 1165 -4z m-3223 -361
c3 -29 8 -62 12 -74 l7 -23 -433 0 -434 0 -65 70 c-45 48 -60 71 -50 73 8 2
227 4 486 4 l472 1 5 -51z m2992 30 c-14 -11 -44 -44 -66 -73 l-40 -54 -455 0
c-422 0 -456 1 -450 17 4 9 9 41 12 72 l6 56 510 1 c508 0 510 0 483 -19z
m-2997 -144 c-16 -2 -40 -2 -55 0 -16 2 -3 4 27 4 30 0 43 -2 28 -4z m-175
-10 c-7 -2 -21 -2 -30 0 -10 3 -4 5 12 5 17 0 24 -2 18 -5z m1877 -257 c0 -2
-8 -10 -17 -17 -16 -13 -17 -12 -4 4 13 16 21 21 21 13z m-1915 -194 c-3 -3
-11 0 -18 7 -9 10 -8 11 6 5 10 -3 15 -9 12 -12z"/>
<path d="M4980 6453 c-90 -17 -271 -111 -367 -192 -23 -19 -32 -38 -13 -26 6
3 10 2 10 -4 0 -16 -18 -22 -23 -9 -4 9 -8 10 -14 2 -4 -6 -25 -31 -45 -56
-62 -75 -130 -248 -127 -324 1 -24 3 -21 9 12 16 77 31 124 40 124 6 0 10 8
10 17 0 9 2 14 5 11 3 -2 -6 -49 -20 -102 -14 -56 -25 -127 -25 -165 0 -104
65 -316 113 -369 15 -17 17 -21 17 -44 0 -6 2 -9 5 -7 2 3 31 -20 63 -50 32
-31 90 -75 130 -99 76 -44 212 -95 240 -90 9 2 -16 11 -54 21 -69 18 -71 20
-71 50 0 18 2 24 4 14 4 -16 12 -17 63 -11 92 10 184 -3 214 -31 14 -13 26
-29 26 -34 0 -6 -33 -12 -72 -14 -40 -2 -26 -3 32 -2 124 3 222 33 320 96 78
50 187 161 222 225 42 78 77 195 82 275 3 41 2 61 0 44 -8 -46 -20 -50 -43
-12 -12 19 -29 38 -38 41 -9 4 -13 9 -10 13 4 3 -8 25 -26 47 -19 23 -37 46
-41 53 -9 16 24 48 58 57 14 3 26 13 26 21 0 16 18 19 37 7 11 -7 27 -67 36
-137 3 -24 4 -22 6 11 2 61 -34 186 -76 267 -44 82 -129 178 -208 232 -30 21
-55 40 -55 42 0 11 87 -47 138 -91 46 -40 50 -42 22 -12 -79 86 -205 160 -325
191 -56 14 -215 19 -275 8z m265 -28 l40 -13 -45 6 c-69 11 -218 6 -284 -8
-61 -12 -158 -54 -211 -90 -42 -28 -53 -25 -17 5 17 14 33 25 37 25 4 0 18 9
32 19 23 19 100 46 173 61 59 13 232 9 275 -5z m109 -30 c20 -8 36 -17 36 -20
0 -4 -91 25 -99 31 -11 10 31 2 63 -11z m-183 -245 c129 -24 238 -108 278
-214 26 -69 45 -205 38 -271 -7 -71 -41 -146 -85 -186 -20 -19 -30 -26 -23
-16 21 27 7 20 -20 -10 -13 -15 -16 -21 -6 -14 11 9 17 10 17 2 0 -22 -92 -70
-167 -87 -64 -15 -85 -16 -154 -6 -44 6 -87 16 -97 22 -13 9 -8 10 23 6 38 -5
38 -5 -14 14 -29 11 -58 17 -64 13 -6 -3 -7 -1 -3 5 3 6 -3 16 -15 22 -17 10
-20 9 -13 -1 15 -25 -55 32 -91 73 -94 110 -106 371 -22 475 81 101 166 155
267 172 77 12 90 12 151 1z"/>
<path d="M5190 5374 c-25 -7 -74 -11 -110 -9 l-65 4 65 -10 c56 -9 74 -7 125
9 67 22 56 27 -15 6z"/>
<path d="M4391 5774 c0 -21 4 -57 9 -79 6 -30 7 -21 3 35 -6 81 -13 107 -12
44z"/>
<path d="M4411 5624 c0 -11 3 -14 6 -6 3 7 2 16 -1 19 -3 4 -6 -2 -5 -13z"/>
<path d="M2753 6918 c35 -21 87 -101 87 -135 0 -8 12 -13 30 -13 17 0 30 5 30
10 0 6 -6 10 -14 10 -8 0 -33 26 -55 58 -37 51 -84 92 -108 92 -4 0 9 -10 30
-22z"/>
<path d="M2592 6833 c-15 -6 -42 -56 -42 -79 0 -24 64 -84 91 -84 12 0 37 11
56 26 42 32 46 82 8 119 -23 24 -77 33 -113 18z"/>
<path d="M3183 6773 c15 -2 37 -2 50 0 12 2 0 4 -28 4 -27 0 -38 -2 -22 -4z"/>
<path d="M2710 5397 c0 -2 15 -16 33 -33 l32 -29 -29 33 c-28 30 -36 37 -36
29z"/>
<path d="M16 5289 c-10 -50 -7 -169 4 -169 6 0 10 40 10 100 0 55 -2 100 -4
100 -2 0 -6 -14 -10 -31z"/>
<path d="M2608 5013 c7 -3 16 -2 19 1 4 3 -2 6 -13 5 -11 0 -14 -3 -6 -6z"/>
<path d="M2520 4979 c-17 -13 -18 -17 -5 -10 33 17 51 31 40 31 -5 0 -21 -10
-35 -21z"/>
<path d="M2721 4997 c2 -1 15 -11 29 -22 l25 -20 -19 23 c-11 12 -24 22 -29
22 -6 0 -8 -1 -6 -3z"/>
<path d="M121 4941 c-10 -7 -7 -9 12 -8 14 1 23 5 20 10 -6 9 -15 9 -32 -2z"/>
<path d="M2796 4928 c10 -14 21 -24 23 -22 3 3 -6 15 -18 27 l-24 22 19 -27z"/>
<path d="M2599 4897 c-30 -24 -51 -65 -44 -89 12 -40 46 -68 81 -68 46 0 63 9
79 41 21 40 19 63 -11 98 -28 33 -75 41 -105 18z"/>
<path d="M4390 4636 c0 -6 122 -46 139 -46 9 1 -18 12 -59 25 -83 27 -80 27
-80 21z"/>
<path d="M4600 4616 c0 -19 -6 -25 -27 -28 -27 -3 -27 -4 5 -9 31 -5 32 -4 32
28 0 18 -2 33 -5 33 -3 0 -5 -11 -5 -24z"/>
<path d="M1290 4314 c0 -10 31 -36 37 -31 3 3 -2 13 -10 22 -16 15 -27 19 -27
9z"/>
<path d="M1150 4240 c0 -11 14 -11 50 0 22 7 21 8 -12 9 -21 1 -38 -3 -38 -9z"/>
<path d="M1270 4240 c0 -5 5 -10 10 -10 6 0 10 5 10 10 0 6 -4 10 -10 10 -5 0
-10 -4 -10 -10z"/>
<path d="M2799 4153 l-24 -28 28 24 c25 23 32 31 24 31 -2 0 -14 -12 -28 -27z"/>
<path d="M771 4160 c0 -8 4 -24 9 -35 5 -13 9 -14 9 -5 0 8 -4 24 -9 35 -5 13
-9 14 -9 5z"/>
<path d="M570 4050 c0 -16 5 -30 10 -30 6 0 10 14 10 30 0 17 -4 30 -10 30 -5
0 -10 -13 -10 -30z"/>
<path d="M2671 4034 c-19 -13 -29 -24 -23 -24 6 0 24 11 39 25 35 31 28 31
-16 -1z"/>
<path d="M2167 3934 c-12 -13 3 -21 29 -16 19 3 22 7 12 13 -16 10 -32 11 -41
3z"/>
</g>
</svg>
