<svg width="405" height="387" viewBox="0 0 405 387" fill="none" xmlns="http://www.w3.org/2000/svg">
<rect x="184" y="387" width="184" height="387" transform="rotate(-180 184 387)" fill="url(#paint0_linear_1025_209)"/>
<rect x="149" y="123" width="229" height="20" rx="9.99999" transform="rotate(90 149 123)" fill="url(#paint1_linear_1025_209)"/>
<rect x="103" y="200" width="152" height="20" rx="9.99999" transform="rotate(90 103 200)" fill="url(#paint2_linear_1025_209)"/>
<rect x="57" y="165" width="187" height="20" rx="9.99999" transform="rotate(90 57 165)" fill="url(#paint3_linear_1025_209)"/>
<rect x="209" width="196" height="162" fill="url(#paint4_linear_1025_209)"/>
<circle opacity="0.8" cx="307" cy="81" r="45" fill="#788293"/>
<mask id="mask0_1025_209" style="mask-type:alpha" maskUnits="userSpaceOnUse" x="262" y="36" width="90" height="90">
<circle opacity="0.8" cx="307" cy="81" r="45" fill="#4A6CF7"/>
</mask>
<g mask="url(#mask0_1025_209)">
<circle opacity="0.8" cx="307" cy="81" r="45" fill="url(#paint5_radial_1025_209)"/>
<g opacity="0.8" filter="url(#filter0_f_1025_209)">
<circle cx="310.97" cy="59.8233" r="18.5294" fill="white"/>
</g>
</g>
<rect x="209" y="187" width="196" height="200" fill="url(#paint6_linear_1025_209)"/>
<defs>
<filter id="filter0_f_1025_209" x="271.441" y="20.2939" width="79.0588" height="79.0586" filterUnits="userSpaceOnUse" color-interpolation-filters="sRGB">
<feFlood flood-opacity="0" result="BackgroundImageFix"/>
<feBlend mode="normal" in="SourceGraphic" in2="BackgroundImageFix" result="shape"/>
<feGaussianBlur stdDeviation="10.5" result="effect1_foregroundBlur_1025_209"/>
</filter>
<linearGradient id="paint0_linear_1025_209" x1="194.5" y1="339" x2="-85.554" y2="469.635" gradientUnits="userSpaceOnUse">
<stop stop-color="#F0F2F9"/>
<stop offset="1" stop-color="white" stop-opacity="0"/>
</linearGradient>
<linearGradient id="paint1_linear_1025_209" x1="352.504" y1="120.054" x2="313.466" y2="259.139" gradientUnits="userSpaceOnUse">
<stop stop-color="#BFC4DC"/>
<stop offset="1" stop-color="white" stop-opacity="0"/>
</linearGradient>
<linearGradient id="paint2_linear_1025_209" x1="238.077" y1="197.054" x2="184.254" y2="324.337" gradientUnits="userSpaceOnUse">
<stop stop-color="#BFC4DC"/>
<stop offset="1" stop-color="white" stop-opacity="0"/>
</linearGradient>
<linearGradient id="paint3_linear_1025_209" x1="223.18" y1="162.054" x2="177.057" y2="296.243" gradientUnits="userSpaceOnUse">
<stop stop-color="#BFC4DC"/>
<stop offset="1" stop-color="white" stop-opacity="0"/>
</linearGradient>
<linearGradient id="paint4_linear_1025_209" x1="307" y1="-3.78494e-06" x2="520.072" y2="344.245" gradientUnits="userSpaceOnUse">
<stop stop-color="#F0F2F9"/>
<stop offset="1" stop-color="white" stop-opacity="0"/>
</linearGradient>
<radialGradient id="paint5_radial_1025_209" cx="0" cy="0" r="1" gradientUnits="userSpaceOnUse" gradientTransform="translate(307 81) rotate(90) scale(48.3088)">
<stop stop-opacity="0.47"/>
<stop offset="1" stop-opacity="0"/>
</radialGradient>
<linearGradient id="paint6_linear_1025_209" x1="383.178" y1="157.536" x2="-35.4363" y2="285.188" gradientUnits="userSpaceOnUse">
<stop stop-color="#F0F2F9"/>
<stop offset="1" stop-color="white" stop-opacity="0"/>
</linearGradient>
</defs>
</svg>
