<svg width="405" height="387" viewBox="0 0 405 387" fill="none" xmlns="http://www.w3.org/2000/svg">
<rect x="405" width="43" height="405" rx="2" transform="rotate(90 405 0)" fill="url(#paint0_linear_1004_168)"/>
<rect x="405" y="63" width="192" height="405" rx="2" transform="rotate(90 405 63)" fill="url(#paint1_linear_1004_168)"/>
<rect y="275" width="132" height="112" rx="2" fill="url(#paint2_linear_1004_168)"/>
<rect x="158" y="275" width="247" height="112" rx="2" fill="url(#paint3_linear_1004_168)"/>
<path d="M310.498 347.334C310.314 347.539 309.998 347.557 309.792 347.372C309.587 347.188 309.57 346.872 309.754 346.666L310.498 347.334ZM309.435 203.231L314.832 205.282L310.357 208.93L309.435 203.231ZM310.47 203.709C310.644 203.923 310.61 204.238 310.396 204.412C310.181 204.586 309.866 204.553 309.693 204.338L310.47 203.709ZM310.954 205.918C310.783 205.701 310.821 205.387 311.038 205.216C311.255 205.045 311.569 205.083 311.74 205.3L310.954 205.918ZM312.975 206.89C313.143 207.11 313.101 207.423 312.882 207.591C312.662 207.759 312.348 207.717 312.181 207.498L312.975 206.89ZM313.372 209.078C313.207 208.856 313.253 208.543 313.475 208.378C313.697 208.213 314.01 208.259 314.175 208.481L313.372 209.078ZM315.381 210.128C315.542 210.352 315.492 210.665 315.268 210.826C315.044 210.988 314.731 210.937 314.57 210.713L315.381 210.128ZM315.734 212.353C315.576 212.126 315.631 211.815 315.857 211.656C316.084 211.498 316.395 211.553 316.553 211.78L315.734 212.353ZM317.689 213.43C317.844 213.659 317.784 213.97 317.556 214.125C317.327 214.279 317.016 214.22 316.861 213.991L317.689 213.43ZM317.972 215.658C317.821 215.427 317.885 215.117 318.116 214.966C318.347 214.814 318.657 214.879 318.809 215.11L317.972 215.658ZM319.91 216.819C320.058 217.053 319.989 217.362 319.755 217.509C319.522 217.657 319.213 217.588 319.065 217.355L319.91 216.819ZM320.121 219.049C319.977 218.814 320.051 218.506 320.286 218.362C320.522 218.218 320.83 218.292 320.974 218.528L320.121 219.049ZM322.006 220.245C322.146 220.483 322.067 220.789 321.829 220.93C321.591 221.07 321.285 220.991 321.145 220.753L322.006 220.245ZM322.159 222.504C322.022 222.264 322.106 221.959 322.346 221.822C322.586 221.686 322.892 221.77 323.028 222.01L322.159 222.504ZM324.011 223.773C324.143 224.015 324.054 224.319 323.812 224.451C323.57 224.584 323.266 224.495 323.133 224.252L324.011 223.773ZM324.069 225.998C323.941 225.754 324.035 225.452 324.279 225.323C324.524 225.195 324.826 225.289 324.954 225.533L324.069 225.998ZM325.888 227.348C326.012 227.595 325.913 227.895 325.667 228.019C325.42 228.144 325.119 228.044 324.995 227.798L325.888 227.348ZM325.881 229.596C325.761 229.347 325.866 229.048 326.115 228.928C326.363 228.808 326.662 228.913 326.782 229.161L325.881 229.596ZM327.636 230.972C327.752 231.222 327.642 231.519 327.391 231.635C327.141 231.751 326.843 231.641 326.728 231.39L327.636 230.972ZM327.556 233.23C327.445 232.977 327.56 232.682 327.813 232.571C328.066 232.46 328.361 232.575 328.472 232.828L327.556 233.23ZM329.269 234.687C329.376 234.942 329.256 235.235 329.001 235.341C328.746 235.448 328.454 235.328 328.347 235.073L329.269 234.687ZM329.097 236.911C328.995 236.655 329.12 236.364 329.377 236.262C329.633 236.16 329.924 236.285 330.026 236.542L329.097 236.911ZM330.76 238.439C330.857 238.698 330.727 238.986 330.468 239.084C330.21 239.181 329.921 239.05 329.824 238.792L330.76 238.439ZM330.512 240.674C330.42 240.414 330.556 240.128 330.816 240.035C331.076 239.943 331.362 240.079 331.455 240.339L330.512 240.674ZM332.108 242.234C332.195 242.495 332.054 242.779 331.792 242.866C331.53 242.954 331.247 242.813 331.159 242.551L332.108 242.234ZM331.781 244.47C331.699 244.206 331.845 243.926 332.109 243.843C332.372 243.761 332.653 243.907 332.735 244.171L331.781 244.47ZM333.321 246.105C333.399 246.37 333.247 246.647 332.982 246.725C332.717 246.803 332.439 246.651 332.362 246.386L333.321 246.105ZM332.902 248.3C332.829 248.033 332.987 247.758 333.253 247.686C333.52 247.613 333.794 247.771 333.867 248.037L332.902 248.3ZM334.382 250.006C334.449 250.274 334.287 250.545 334.019 250.613C333.751 250.68 333.48 250.517 333.412 250.25L334.382 250.006ZM333.881 252.192C333.818 251.923 333.986 251.655 334.255 251.593C334.524 251.53 334.793 251.698 334.855 251.967L333.881 252.192ZM335.289 253.936C335.346 254.206 335.173 254.471 334.903 254.528C334.633 254.585 334.368 254.412 334.311 254.142L335.289 253.936ZM334.705 256.113C334.654 255.842 334.832 255.58 335.103 255.529C335.375 255.477 335.636 255.655 335.688 255.927L334.705 256.113ZM336.044 257.909C336.091 258.181 335.907 258.439 335.635 258.485C335.363 258.531 335.105 258.348 335.058 258.076L336.044 257.909ZM335.374 260.055C335.334 259.782 335.522 259.528 335.795 259.487C336.068 259.446 336.323 259.634 336.363 259.908L335.374 260.055ZM336.643 261.913C336.679 262.187 336.485 262.438 336.212 262.473C335.938 262.508 335.687 262.315 335.651 262.041L336.643 261.913ZM335.888 264.017C335.857 263.742 336.056 263.496 336.33 263.465C336.605 263.435 336.852 263.634 336.882 263.908L335.888 264.017ZM337.083 265.931C337.108 266.206 336.904 266.449 336.629 266.473C336.354 266.498 336.111 266.295 336.087 266.02L337.083 265.931ZM336.245 268.013C336.226 267.738 336.434 267.499 336.71 267.48C336.985 267.46 337.224 267.668 337.243 267.944L336.245 268.013ZM337.364 269.958C337.377 270.234 337.165 270.469 336.889 270.482C336.613 270.496 336.379 270.284 336.365 270.008L337.364 269.958ZM336.445 272.014C336.437 271.738 336.654 271.508 336.93 271.499C337.206 271.491 337.436 271.708 337.445 271.984L336.445 272.014ZM337.486 273.997C337.489 274.273 337.267 274.499 336.991 274.502C336.715 274.505 336.489 274.283 336.486 274.007L337.486 273.997ZM336.488 276.016C336.49 275.74 336.716 275.518 336.992 275.52C337.268 275.523 337.49 275.748 337.488 276.025L336.488 276.016ZM337.45 278.045C337.442 278.321 337.212 278.538 336.936 278.531C336.66 278.523 336.443 278.293 336.45 278.017L337.45 278.045ZM336.375 280.013C336.388 279.737 336.622 279.524 336.898 279.537C337.174 279.55 337.387 279.785 337.373 280.061L336.375 280.013ZM337.257 282.085C337.239 282.36 337.001 282.569 336.725 282.55C336.449 282.532 336.241 282.293 336.26 282.018L337.257 282.085ZM336.107 284.006C336.131 283.731 336.373 283.527 336.648 283.551C336.923 283.575 337.127 283.817 337.103 284.092L336.107 284.006ZM336.91 286.111C336.881 286.385 336.635 286.585 336.36 286.556C336.086 286.527 335.886 286.281 335.915 286.006L336.91 286.111ZM335.687 287.993C335.721 287.719 335.971 287.525 336.245 287.559C336.519 287.593 336.713 287.843 336.679 288.117L335.687 287.993ZM336.41 290.118C336.371 290.392 336.118 290.582 335.844 290.542C335.571 290.503 335.381 290.25 335.421 289.976L336.41 290.118ZM335.117 291.959C335.161 291.687 335.418 291.502 335.69 291.546C335.963 291.591 336.148 291.848 336.104 292.12L335.117 291.959ZM335.762 294.103C335.712 294.374 335.452 294.554 335.18 294.505C334.909 294.456 334.729 294.195 334.778 293.924L335.762 294.103ZM334.4 295.9C334.454 295.629 334.718 295.454 334.988 295.508C335.259 295.563 335.434 295.826 335.38 296.097L334.4 295.9ZM334.965 298.069C334.906 298.339 334.639 298.509 334.369 298.45C334.099 298.391 333.929 298.124 333.988 297.854L334.965 298.069ZM333.539 299.81C333.604 299.542 333.873 299.376 334.142 299.44C334.41 299.504 334.576 299.774 334.512 300.043L333.539 299.81ZM334.024 302.003C333.955 302.271 333.683 302.431 333.415 302.362C333.148 302.293 332.987 302.021 333.056 301.753L334.024 302.003ZM332.539 303.686C332.613 303.42 332.888 303.264 333.154 303.338C333.42 303.411 333.576 303.687 333.502 303.953L332.539 303.686ZM332.944 305.899C332.866 306.164 332.587 306.315 332.323 306.236C332.058 306.158 331.907 305.88 331.985 305.615L332.944 305.899ZM331.401 307.523C331.485 307.259 331.765 307.113 332.029 307.196C332.292 307.279 332.438 307.56 332.355 307.824L331.401 307.523ZM331.727 309.754C331.639 310.015 331.356 310.157 331.094 310.069C330.832 309.981 330.691 309.698 330.779 309.436L331.727 309.754ZM330.129 311.32C330.221 311.06 330.507 310.924 330.767 311.016C331.028 311.108 331.164 311.394 331.071 311.654L330.129 311.32ZM330.376 313.562C330.28 313.821 329.991 313.952 329.733 313.855C329.474 313.758 329.343 313.47 329.44 313.212L330.376 313.562ZM328.724 315.075C328.825 314.818 329.116 314.692 329.372 314.793C329.629 314.895 329.756 315.185 329.654 315.442L328.724 315.075ZM328.895 317.321C328.789 317.576 328.497 317.698 328.242 317.592C327.987 317.486 327.865 317.194 327.971 316.939L328.895 317.321ZM327.191 318.779C327.301 318.526 327.595 318.409 327.848 318.519C328.102 318.629 328.218 318.924 328.108 319.177L327.191 318.779ZM327.285 321.027C327.171 321.278 326.875 321.389 326.623 321.275C326.372 321.161 326.261 320.864 326.375 320.613L327.285 321.027ZM325.531 322.427C325.65 322.178 325.948 322.072 326.197 322.19C326.447 322.309 326.553 322.607 326.434 322.857L325.531 322.427ZM325.549 324.676C325.426 324.923 325.126 325.024 324.879 324.901C324.632 324.778 324.531 324.478 324.654 324.231L325.549 324.676ZM323.747 326.015C323.875 325.77 324.176 325.674 324.422 325.801C324.667 325.929 324.762 326.23 324.635 326.476L323.747 326.015ZM323.688 328.263C323.556 328.506 323.253 328.596 323.01 328.465C322.767 328.333 322.677 328.03 322.808 327.787L323.688 328.263ZM321.841 329.538C321.977 329.297 322.282 329.212 322.522 329.348C322.763 329.484 322.848 329.789 322.712 330.029L321.841 329.538ZM321.701 331.784C321.561 332.022 321.255 332.102 321.017 331.962C320.779 331.822 320.699 331.516 320.839 331.278L321.701 331.784ZM319.812 332.989C319.957 332.754 320.264 332.68 320.5 332.824C320.735 332.968 320.809 333.276 320.665 333.511L319.812 332.989ZM319.589 335.233C319.441 335.466 319.132 335.534 318.899 335.386C318.666 335.237 318.598 334.928 318.746 334.695L319.589 335.233ZM317.662 336.361C317.814 336.131 318.125 336.068 318.355 336.221C318.585 336.374 318.647 336.684 318.494 336.914L317.662 336.361ZM317.35 338.601C317.193 338.828 316.881 338.884 316.654 338.727C316.427 338.569 316.371 338.258 316.528 338.031L317.35 338.601ZM315.378 339.656C315.54 339.432 315.852 339.382 316.076 339.543C316.3 339.705 316.35 340.018 316.188 340.242L315.378 339.656ZM314.981 341.875C314.815 342.095 314.501 342.139 314.281 341.972C314.06 341.806 314.017 341.492 314.183 341.272L314.981 341.875ZM312.958 342.857C313.129 342.64 313.444 342.604 313.66 342.775C313.877 342.946 313.913 343.261 313.742 343.477L312.958 342.857ZM312.48 345.035C312.304 345.248 311.989 345.277 311.776 345.101C311.564 344.924 311.534 344.609 311.711 344.397L312.48 345.035ZM310.402 345.934C310.584 345.726 310.9 345.705 311.108 345.886C311.316 346.068 311.337 346.384 311.155 346.592L310.402 345.934ZM311.74 205.3C312.157 205.83 312.569 206.36 312.975 206.89L312.181 207.498C311.778 206.972 311.369 206.445 310.954 205.918L311.74 205.3ZM314.175 208.481C314.583 209.03 314.985 209.579 315.381 210.128L314.57 210.713C314.177 210.168 313.778 209.623 313.372 209.078L314.175 208.481ZM316.553 211.78C316.938 212.33 317.317 212.88 317.689 213.43L316.861 213.991C316.492 213.445 316.116 212.899 315.734 212.353L316.553 211.78ZM318.809 215.11C319.182 215.68 319.549 216.25 319.91 216.819L319.065 217.355C318.707 216.789 318.343 216.224 317.972 215.658L318.809 215.11ZM320.974 218.528C321.324 219.1 321.668 219.673 322.006 220.245L321.145 220.753C320.81 220.186 320.468 219.618 320.121 219.049L320.974 218.528ZM323.028 222.01C323.362 222.598 323.69 223.185 324.011 223.773L323.133 224.252C322.815 223.67 322.49 223.087 322.159 222.504L323.028 222.01ZM324.954 225.533C325.273 226.139 325.584 226.743 325.888 227.348L324.995 227.798C324.693 227.198 324.385 226.599 324.069 225.998L324.954 225.533ZM326.782 229.161C327.073 229.765 327.358 230.369 327.636 230.972L326.728 231.39C326.452 230.793 326.17 230.194 325.881 229.596L326.782 229.161ZM328.472 232.828C328.745 233.448 329.01 234.068 329.269 234.687L328.347 235.073C328.09 234.459 327.827 233.845 327.556 233.23L328.472 232.828ZM330.026 236.542C330.278 237.175 330.522 237.808 330.76 238.439L329.824 238.792C329.589 238.166 329.346 237.539 329.097 236.911L330.026 236.542ZM331.455 240.339C331.679 240.971 331.897 241.603 332.108 242.234L331.159 242.551C330.951 241.926 330.735 241.3 330.512 240.674L331.455 240.339ZM332.735 244.171C332.938 244.816 333.133 245.461 333.321 246.105L332.362 246.386C332.175 245.748 331.982 245.109 331.781 244.47L332.735 244.171ZM333.867 248.037C334.046 248.695 334.217 249.351 334.382 250.006L333.412 250.25C333.249 249.601 333.079 248.951 332.902 248.3L333.867 248.037ZM334.855 251.967C335.007 252.625 335.151 253.281 335.289 253.936L334.311 254.142C334.174 253.493 334.031 252.843 333.881 252.192L334.855 251.967ZM335.688 255.927C335.814 256.589 335.932 257.249 336.044 257.909L335.058 258.076C334.948 257.423 334.83 256.769 334.705 256.113L335.688 255.927ZM336.363 259.908C336.464 260.578 336.557 261.246 336.643 261.913L335.651 262.041C335.566 261.381 335.474 260.719 335.374 260.055L336.363 259.908ZM336.882 263.908C336.956 264.584 337.023 265.258 337.083 265.931L336.087 266.02C336.027 265.354 335.961 264.686 335.888 264.017L336.882 263.908ZM337.243 267.944C337.29 268.617 337.33 269.289 337.364 269.958L336.365 270.008C336.332 269.345 336.292 268.68 336.245 268.013L337.243 267.944ZM337.445 271.984C337.465 272.657 337.479 273.328 337.486 273.997L336.486 274.007C336.479 273.345 336.465 272.681 336.445 272.014L337.445 271.984ZM337.488 276.025C337.482 276.701 337.469 277.374 337.45 278.045L336.45 278.017C336.469 277.352 336.482 276.685 336.488 276.016L337.488 276.025ZM337.373 280.061C337.341 280.738 337.302 281.413 337.257 282.085L336.26 282.018C336.304 281.352 336.343 280.684 336.375 280.013L337.373 280.061ZM337.103 284.092C337.045 284.768 336.981 285.441 336.91 286.111L335.915 286.006C335.985 285.342 336.049 284.676 336.107 284.006L337.103 284.092ZM336.679 288.117C336.595 288.787 336.506 289.455 336.41 290.118L335.421 289.976C335.515 289.318 335.604 288.657 335.687 287.993L336.679 288.117ZM336.104 292.12C335.995 292.784 335.881 293.445 335.762 294.103L334.778 293.924C334.896 293.272 335.009 292.618 335.117 291.959L336.104 292.12ZM335.38 296.097C335.247 296.758 335.109 297.416 334.965 298.069L333.988 297.854C334.131 297.207 334.268 296.555 334.4 295.9L335.38 296.097ZM334.512 300.043C334.355 300.7 334.192 301.354 334.024 302.003L333.056 301.753C333.222 301.109 333.384 300.462 333.539 299.81L334.512 300.043ZM333.502 303.953C333.321 304.606 333.135 305.255 332.944 305.899L331.985 305.615C332.175 304.976 332.359 304.333 332.539 303.686L333.502 303.953ZM332.355 307.824C332.15 308.472 331.941 309.115 331.727 309.754L330.779 309.436C330.991 308.803 331.199 308.165 331.401 307.523L332.355 307.824ZM331.071 311.654C330.844 312.295 330.612 312.931 330.376 313.562L329.44 313.212C329.674 312.586 329.904 311.956 330.129 311.32L331.071 311.654ZM329.654 315.442C329.405 316.074 329.152 316.7 328.895 317.321L327.971 316.939C328.226 316.323 328.477 315.702 328.724 315.075L329.654 315.442ZM328.108 319.177C327.837 319.8 327.563 320.417 327.285 321.027L326.375 320.613C326.65 320.008 326.922 319.396 327.191 318.779L328.108 319.177ZM326.434 322.857C326.142 323.47 325.847 324.076 325.549 324.676L324.654 324.231C324.949 323.636 325.242 323.035 325.531 322.427L326.434 322.857ZM324.635 326.476C324.322 327.079 324.006 327.675 323.688 328.263L322.808 327.787C323.124 327.204 323.437 326.613 323.747 326.015L324.635 326.476ZM322.712 330.029C322.377 330.623 322.04 331.208 321.701 331.784L320.839 331.278C321.175 330.706 321.509 330.126 321.841 329.538L322.712 330.029ZM320.665 333.511C320.308 334.095 319.949 334.669 319.589 335.233L318.746 334.695C319.103 334.136 319.459 333.567 319.812 332.989L320.665 333.511ZM318.494 336.914C318.114 337.487 317.732 338.049 317.35 338.601L316.528 338.031C316.906 337.485 317.285 336.928 317.662 336.361L318.494 336.914ZM316.188 340.242C315.786 340.798 315.383 341.343 314.981 341.875L314.183 341.272C314.581 340.745 314.979 340.207 315.378 339.656L316.188 340.242ZM313.742 343.477C313.32 344.011 312.899 344.53 312.48 345.035L311.711 344.397C312.124 343.898 312.54 343.385 312.958 342.857L313.742 343.477ZM311.155 346.592C310.935 346.843 310.716 347.091 310.498 347.334L309.754 346.666C309.969 346.426 310.185 346.182 310.402 345.934L311.155 346.592Z" fill="url(#paint4_linear_1004_168)"/>
<rect x="180" y="166.399" width="122.097" height="30.5241" rx="7" fill="white" fill-opacity="0.15"/>
<rect x="180.1" y="166.499" width="121.897" height="30.3241" rx="6.9" stroke="white" stroke-opacity="0.19" stroke-width="0.2"/>
<path d="M216.95 184.936H218.008V181.879H220.986V180.972H218.008V178.836H221.297V177.925H216.95V184.936Z" fill="white"/>
<path d="M225.517 182.755C225.52 183.648 224.856 184.073 224.281 184.073C223.648 184.073 223.21 183.614 223.21 182.899V179.678H222.186V183.022C222.186 184.326 222.902 185.004 223.911 185.004C224.702 185.004 225.24 184.586 225.483 184.025H225.537V184.936H226.544V179.678H225.517V182.755Z" fill="white"/>
<path d="M228.942 177.925H227.919V184.936H228.942V177.925Z" fill="white"/>
<path d="M231.343 177.925H230.319V184.936H231.343V177.925Z" fill="white"/>
<path d="M233.367 186.907C234.212 186.907 234.746 186.466 235.051 185.637L237.224 179.688L236.119 179.678L234.787 183.758H234.732L233.401 179.678H232.306L234.229 185.004L234.103 185.353C233.842 186.051 233.476 186.11 232.915 185.956L232.668 186.794C232.792 186.849 233.059 186.907 233.367 186.907Z" fill="white"/>
<path d="M240.822 184.936H241.88V182.283H243.317C243.341 182.283 243.362 182.283 243.386 182.283L244.81 184.936H246.015L244.461 182.098C245.32 181.78 245.748 181.064 245.748 180.123C245.748 178.832 244.947 177.925 243.321 177.925H240.822V184.936ZM241.88 181.372V178.832H243.208C244.252 178.832 244.683 179.329 244.683 180.123C244.683 180.914 244.252 181.372 243.222 181.372H241.88Z" fill="white"/>
<path d="M249.153 185.042C250.299 185.042 251.111 184.477 251.343 183.621L250.375 183.447C250.19 183.943 249.745 184.196 249.163 184.196C248.287 184.196 247.698 183.628 247.671 182.615H251.409V182.252C251.409 180.352 250.272 179.609 249.081 179.609C247.616 179.609 246.651 180.725 246.651 182.341C246.651 183.974 247.602 185.042 249.153 185.042ZM247.674 181.848C247.715 181.102 248.256 180.455 249.088 180.455C249.882 180.455 250.402 181.044 250.406 181.848H247.674Z" fill="white"/>
<path d="M256.484 180.961C256.272 180.143 255.632 179.609 254.495 179.609C253.307 179.609 252.465 180.236 252.465 181.167C252.465 181.913 252.917 182.409 253.903 182.628L254.793 182.824C255.3 182.937 255.536 183.162 255.536 183.491C255.536 183.898 255.101 184.217 254.43 184.217C253.817 184.217 253.424 183.953 253.301 183.436L252.311 183.587C252.482 184.518 253.256 185.042 254.437 185.042C255.707 185.042 256.587 184.367 256.587 183.416C256.587 182.673 256.114 182.214 255.149 181.992L254.314 181.8C253.735 181.663 253.485 181.468 253.489 181.112C253.485 180.708 253.924 180.421 254.505 180.421C255.142 180.421 255.437 180.773 255.556 181.126L256.484 180.961Z" fill="white"/>
<path d="M257.712 186.907H258.735V184.117H258.797C258.982 184.453 259.358 185.038 260.317 185.038C261.59 185.038 262.514 184.018 262.514 182.317C262.514 180.612 261.577 179.609 260.307 179.609C259.331 179.609 258.979 180.205 258.797 180.53H258.712V179.678H257.712V186.907ZM258.715 182.307C258.715 181.208 259.194 180.479 260.088 180.479C261.015 180.479 261.481 181.263 261.481 182.307C261.481 183.361 261.002 184.165 260.088 184.165C259.208 184.165 258.715 183.412 258.715 182.307Z" fill="white"/>
<path d="M265.876 185.042C267.358 185.042 268.327 183.957 268.327 182.331C268.327 180.694 267.358 179.609 265.876 179.609C264.394 179.609 263.425 180.694 263.425 182.331C263.425 183.957 264.394 185.042 265.876 185.042ZM265.879 184.182C264.911 184.182 264.459 183.337 264.459 182.327C264.459 181.321 264.911 180.465 265.879 180.465C266.841 180.465 267.293 181.321 267.293 182.327C267.293 183.337 266.841 184.182 265.879 184.182Z" fill="white"/>
<path d="M270.493 181.814C270.493 180.975 271.006 180.496 271.718 180.496C272.413 180.496 272.834 180.951 272.834 181.714V184.936H273.857V181.591C273.857 180.291 273.142 179.609 272.067 179.609C271.277 179.609 270.76 179.976 270.517 180.534H270.452V179.678H269.469V184.936H270.493V181.814Z" fill="white"/>
<path d="M279.17 180.961C278.958 180.143 278.318 179.609 277.181 179.609C275.993 179.609 275.151 180.236 275.151 181.167C275.151 181.913 275.603 182.409 276.589 182.628L277.479 182.824C277.986 182.937 278.222 183.162 278.222 183.491C278.222 183.898 277.787 184.217 277.116 184.217C276.503 184.217 276.11 183.953 275.987 183.436L274.997 183.587C275.168 184.518 275.942 185.042 277.123 185.042C278.393 185.042 279.273 184.367 279.273 183.416C279.273 182.673 278.8 182.214 277.835 181.992L277 181.8C276.421 181.663 276.171 181.468 276.175 181.112C276.171 180.708 276.61 180.421 277.191 180.421C277.828 180.421 278.123 180.773 278.242 181.126L279.17 180.961Z" fill="white"/>
<path d="M280.398 184.936H281.421V179.678H280.398V184.936ZM280.915 178.867C281.267 178.867 281.562 178.593 281.562 178.257C281.562 177.922 281.267 177.645 280.915 177.645C280.559 177.645 280.268 177.922 280.268 178.257C280.268 178.593 280.559 178.867 280.915 178.867Z" fill="white"/>
<path d="M287.296 179.678H286.197L284.869 183.724H284.815L283.483 179.678H282.384L284.294 184.936H285.39L287.296 179.678Z" fill="white"/>
<path d="M290.336 185.042C291.483 185.042 292.294 184.477 292.527 183.621L291.558 183.447C291.373 183.943 290.928 184.196 290.346 184.196C289.47 184.196 288.881 183.628 288.854 182.615H292.592V182.252C292.592 180.352 291.455 179.609 290.264 179.609C288.799 179.609 287.834 180.725 287.834 182.341C287.834 183.974 288.785 185.042 290.336 185.042ZM288.857 181.848C288.898 181.102 289.439 180.455 290.271 180.455C291.065 180.455 291.585 181.044 291.589 181.848H288.857Z" fill="white"/>
<circle cx="198.475" cy="181.661" r="10.4425" fill="#4A6CF7"/>
<g clip-path="url(#clip0_1004_168)">
<path d="M194.727 178.849H202.224V183.534H194.727V178.849ZM202.224 184.472C202.473 184.472 202.711 184.373 202.887 184.197C203.063 184.021 203.162 183.783 203.162 183.534V178.849C203.162 178.329 202.74 177.912 202.224 177.912H194.727C194.207 177.912 193.79 178.329 193.79 178.849V183.534C193.79 183.783 193.889 184.021 194.065 184.197C194.24 184.373 194.479 184.472 194.727 184.472H192.853V185.409H204.099V184.472H202.224Z" fill="white"/>
</g>
<rect x="324" y="12" width="69" height="19.5283" rx="9.76415" fill="#36A269"/>
<path d="M339.37 18.5093V22.1764C339.37 22.9475 338.838 23.5023 337.972 23.5023C337.109 23.5023 336.574 22.9475 336.574 22.1764V18.5093H335.717V22.2457C335.717 23.4385 336.61 24.2846 337.972 24.2846C339.334 24.2846 340.23 23.4385 340.23 22.2457V18.5093H339.37Z" fill="white"/>
<path d="M341.41 25.788H342.239V23.5273H342.289C342.439 23.7991 342.744 24.2735 343.521 24.2735C344.553 24.2735 345.302 23.4468 345.302 22.0682C345.302 20.6868 344.541 19.874 343.512 19.874C342.722 19.874 342.436 20.3567 342.289 20.6202H342.22V19.9295H341.41V25.788ZM342.222 22.0599C342.222 21.1695 342.611 20.5786 343.335 20.5786C344.087 20.5786 344.464 21.2138 344.464 22.0599C344.464 22.9142 344.075 23.5661 343.335 23.5661C342.622 23.5661 342.222 22.9558 342.222 22.0599Z" fill="white"/>
<path d="M347.826 24.2735C348.602 24.2735 348.908 23.7991 349.057 23.5273H349.127V24.1902H349.937V18.5093H349.107V20.6202H349.057C348.908 20.3567 348.625 19.874 347.831 19.874C346.802 19.874 346.045 20.6868 346.045 22.0682C346.045 23.4468 346.791 24.2735 347.826 24.2735ZM348.009 23.5661C347.268 23.5661 346.883 22.9142 346.883 22.0599C346.883 21.2138 347.26 20.5786 348.009 20.5786C348.733 20.5786 349.121 21.1695 349.121 22.0599C349.121 22.9558 348.725 23.5661 348.009 23.5661Z" fill="white"/>
<path d="M352.36 24.2846C353.065 24.2846 353.462 23.9267 353.62 23.6077H353.653V24.1902H354.463V21.3609C354.463 20.1209 353.487 19.874 352.81 19.874C352.039 19.874 351.329 20.1847 351.051 20.9614L351.831 21.1389C351.953 20.8366 352.263 20.5453 352.821 20.5453C353.356 20.5453 353.631 20.8255 353.631 21.3081V21.3276C353.631 21.6299 353.32 21.6244 352.555 21.7131C351.747 21.8075 350.921 22.0183 350.921 22.9864C350.921 23.8241 351.55 24.2846 352.36 24.2846ZM352.541 23.6188C352.072 23.6188 351.734 23.408 351.734 22.9975C351.734 22.5536 352.127 22.3955 352.607 22.3317C352.876 22.2957 353.514 22.2235 353.634 22.1043V22.6535C353.634 23.1583 353.231 23.6188 352.541 23.6188Z" fill="white"/>
<path d="M357.557 19.9295H356.683V18.9087H355.853V19.9295H355.229V20.5953H355.853V23.1112C355.851 23.8851 356.442 24.2596 357.096 24.2457C357.36 24.2429 357.537 24.193 357.634 24.157L357.485 23.4718C357.429 23.4829 357.326 23.5079 357.193 23.5079C356.924 23.5079 356.683 23.4191 356.683 22.9392V20.5953H357.557V19.9295Z" fill="white"/>
<path d="M360.265 24.2762C361.194 24.2762 361.851 23.8185 362.04 23.1251L361.255 22.9836C361.105 23.3858 360.745 23.5911 360.273 23.5911C359.563 23.5911 359.086 23.1306 359.064 22.3095H362.093V22.0155C362.093 20.476 361.172 19.874 360.206 19.874C359.019 19.874 358.237 20.7783 358.237 22.0876C358.237 23.4108 359.008 24.2762 360.265 24.2762ZM359.066 21.6882C359.1 21.0835 359.538 20.5592 360.212 20.5592C360.856 20.5592 361.277 21.0363 361.28 21.6882H359.066Z" fill="white"/>
<path d="M369.732 18.5093H368.883V22.6812H368.83L365.94 18.5093H365.147V24.1902H366.004V20.0238H366.057L368.944 24.1902H369.732V18.5093Z" fill="white"/>
<path d="M372.71 24.2762C373.912 24.2762 374.697 23.3969 374.697 22.0793C374.697 20.7534 373.912 19.874 372.71 19.874C371.509 19.874 370.724 20.7534 370.724 22.0793C370.724 23.3969 371.509 24.2762 372.71 24.2762ZM372.713 23.58C371.928 23.58 371.562 22.8948 371.562 22.0765C371.562 21.261 371.928 20.5675 372.713 20.5675C373.493 20.5675 373.859 21.261 373.859 22.0765C373.859 22.8948 373.493 23.58 372.713 23.58Z" fill="white"/>
<path d="M376.416 24.1902H377.26L378.125 21.114H378.189L379.054 24.1902H379.9L381.151 19.9295H380.294L379.465 23.0446H379.423L378.591 19.9295H377.734L376.896 23.0585H376.855L376.02 19.9295H375.163L376.416 24.1902Z" fill="white"/>
<defs>
<linearGradient id="paint0_linear_1004_168" x1="396.5" y1="380" x2="464.5" y2="-144" gradientUnits="userSpaceOnUse">
<stop stop-color="#343A45"/>
<stop offset="1" stop-color="#343A45" stop-opacity="0"/>
</linearGradient>
<linearGradient id="paint1_linear_1004_168" x1="405" y1="266" x2="588.709" y2="552.092" gradientUnits="userSpaceOnUse">
<stop stop-color="#343A45"/>
<stop offset="1" stop-color="#343A45" stop-opacity="0"/>
</linearGradient>
<linearGradient id="paint2_linear_1004_168" x1="3.73293e-06" y1="331.138" x2="27.0567" y2="435.889" gradientUnits="userSpaceOnUse">
<stop stop-color="#343A45"/>
<stop offset="1" stop-color="#343A45" stop-opacity="0"/>
</linearGradient>
<linearGradient id="paint3_linear_1004_168" x1="158" y1="331.138" x2="173.136" y2="440.788" gradientUnits="userSpaceOnUse">
<stop stop-color="#343A45"/>
<stop offset="1" stop-color="#343A45" stop-opacity="0"/>
</linearGradient>
<linearGradient id="paint4_linear_1004_168" x1="313.822" y1="202.827" x2="326.939" y2="345.454" gradientUnits="userSpaceOnUse">
<stop stop-color="white" stop-opacity="0.48"/>
<stop offset="1" stop-color="white" stop-opacity="0"/>
</linearGradient>
<clipPath id="clip0_1004_168">
<rect width="11.2457" height="11.2457" fill="white" transform="translate(192.853 176.037)"/>
</clipPath>
</defs>
</svg>
