<svg width="405" height="387" viewBox="0 0 405 387" fill="none" xmlns="http://www.w3.org/2000/svg">
<rect x="184" y="387" width="184" height="387" rx="2" transform="rotate(-180 184 387)" fill="url(#paint0_linear_1005_946)"/>
<rect x="149" y="123" width="229" height="20" rx="9.99999" transform="rotate(90 149 123)" fill="url(#paint1_linear_1005_946)" fill-opacity="0.18"/>
<rect x="103" y="200" width="152" height="20" rx="9.99999" transform="rotate(90 103 200)" fill="url(#paint2_linear_1005_946)" fill-opacity="0.18"/>
<rect x="57" y="165" width="187" height="20" rx="9.99999" transform="rotate(90 57 165)" fill="url(#paint3_linear_1005_946)" fill-opacity="0.18"/>
<rect x="209" y="-0.000244141" width="196" height="162" rx="2" fill="url(#paint4_linear_1005_946)"/>
<circle opacity="0.8" cx="307" cy="80.9998" r="45" fill="#9198A5"/>
<mask id="mask0_1005_946" style="mask-type:alpha" maskUnits="userSpaceOnUse" x="262" y="35" width="90" height="91">
<circle opacity="0.8" cx="307" cy="80.9998" r="45" fill="#4A6CF7"/>
</mask>
<g mask="url(#mask0_1005_946)">
<circle opacity="0.8" cx="307" cy="80.9998" r="45" fill="url(#paint5_radial_1005_946)"/>
<g opacity="0.8" filter="url(#filter0_f_1005_946)">
<circle cx="310.97" cy="59.8232" r="18.5294" fill="white"/>
</g>
</g>
<rect x="209" y="187" width="196" height="200" rx="2" fill="url(#paint6_linear_1005_946)"/>
<defs>
<filter id="filter0_f_1005_946" x="271.441" y="20.2938" width="79.0588" height="79.0588" filterUnits="userSpaceOnUse" color-interpolation-filters="sRGB">
<feFlood flood-opacity="0" result="BackgroundImageFix"/>
<feBlend mode="normal" in="SourceGraphic" in2="BackgroundImageFix" result="shape"/>
<feGaussianBlur stdDeviation="10.5" result="effect1_foregroundBlur_1005_946"/>
</filter>
<linearGradient id="paint0_linear_1005_946" x1="184" y1="580.978" x2="359.332" y2="854.817" gradientUnits="userSpaceOnUse">
<stop stop-color="#343A45"/>
<stop offset="1" stop-color="#343A45" stop-opacity="0"/>
</linearGradient>
<linearGradient id="paint1_linear_1005_946" x1="263.5" y1="123" x2="263.5" y2="143" gradientUnits="userSpaceOnUse">
<stop stop-color="white"/>
<stop offset="1" stop-color="white" stop-opacity="0"/>
</linearGradient>
<linearGradient id="paint2_linear_1005_946" x1="179" y1="200" x2="179" y2="220" gradientUnits="userSpaceOnUse">
<stop stop-color="white"/>
<stop offset="1" stop-color="white" stop-opacity="0"/>
</linearGradient>
<linearGradient id="paint3_linear_1005_946" x1="150.5" y1="165" x2="150.5" y2="185" gradientUnits="userSpaceOnUse">
<stop stop-color="white"/>
<stop offset="1" stop-color="white" stop-opacity="0"/>
</linearGradient>
<linearGradient id="paint4_linear_1005_946" x1="209" y1="81.1998" x2="247.245" y2="233.2" gradientUnits="userSpaceOnUse">
<stop stop-color="#343A45"/>
<stop offset="1" stop-color="#343A45" stop-opacity="0"/>
</linearGradient>
<radialGradient id="paint5_radial_1005_946" cx="0" cy="0" r="1" gradientUnits="userSpaceOnUse" gradientTransform="translate(307 80.9998) rotate(90) scale(48.3088)">
<stop stop-opacity="0.47"/>
<stop offset="1" stop-opacity="0"/>
</radialGradient>
<linearGradient id="paint6_linear_1005_946" x1="209" y1="287.247" x2="265.527" y2="469.222" gradientUnits="userSpaceOnUse">
<stop stop-color="#343A45"/>
<stop offset="1" stop-color="#343A45" stop-opacity="0"/>
</linearGradient>
</defs>
</svg>
